%TF.GenerationSoftware,KiCad,Pcbnew,9.0.5*%
%TF.CreationDate,2026-03-16T21:49:05-07:00*%
%TF.ProjectId,Sensor_Sled,53656e73-6f72-45f5-936c-65642e6b6963,rev?*%
%TF.SameCoordinates,Original*%
%TF.FileFunction,Plated,1,2,PTH,Drill*%
%TF.FilePolarity,Positive*%
%FSLAX46Y46*%
G04 Gerber Fmt 4.6, Leading zero omitted, Abs format (unit mm)*
G04 Created by KiCad (PCBNEW 9.0.5) date 2026-03-16 21:49:05*
%MOMM*%
%LPD*%
G01*
G04 APERTURE LIST*
%TA.AperFunction,ViaDrill*%
%ADD10C,0.300000*%
%TD*%
%TA.AperFunction,ComponentDrill*%
%ADD11C,0.600000*%
%TD*%
%TA.AperFunction,ComponentDrill*%
%ADD12C,0.750000*%
%TD*%
%TA.AperFunction,ComponentDrill*%
%ADD13C,0.800000*%
%TD*%
%TA.AperFunction,ComponentDrill*%
%ADD14C,0.999998*%
%TD*%
%TA.AperFunction,ComponentDrill*%
%ADD15C,1.000000*%
%TD*%
%TA.AperFunction,ComponentDrill*%
%ADD16C,1.100000*%
%TD*%
%TA.AperFunction,ComponentDrill*%
%ADD17C,1.230000*%
%TD*%
G04 APERTURE END LIST*
D10*
X127633490Y-107908000D03*
X134333490Y-107908000D03*
X139446000Y-69596000D03*
X143620490Y-86614000D03*
X143620490Y-89408000D03*
D11*
%TO.C,C4*%
X124008000Y-40896000D03*
%TO.C,C3*%
X124258000Y-47246000D03*
%TO.C,C2*%
X124258000Y-53088000D03*
%TO.C,C1*%
X124258000Y-58930000D03*
%TO.C,C3*%
X125758000Y-47246000D03*
%TO.C,C2*%
X125758000Y-53088000D03*
%TO.C,C1*%
X125758000Y-58930000D03*
%TO.C,C4*%
X126008000Y-40896000D03*
%TO.C,C5*%
X127520000Y-142748000D03*
%TO.C,C8*%
X128282000Y-121158000D03*
%TO.C,C5*%
X129020000Y-142748000D03*
%TO.C,C8*%
X129782000Y-121158000D03*
D12*
%TO.C,J2*%
X112522000Y-37624000D03*
X112522000Y-39624000D03*
X112522000Y-41624000D03*
X112522000Y-43624000D03*
%TO.C,J3*%
X112564000Y-50340000D03*
X112564000Y-52340000D03*
X112564000Y-54340000D03*
X112564000Y-56340000D03*
%TO.C,J4*%
X112564000Y-63040000D03*
X112564000Y-65040000D03*
X112564000Y-67040000D03*
X112564000Y-69040000D03*
%TO.C,J5*%
X112564000Y-75740000D03*
X112564000Y-77740000D03*
X112564000Y-79740000D03*
X112564000Y-81740000D03*
%TO.C,J6*%
X112564000Y-88440000D03*
X112564000Y-90440000D03*
X112564000Y-92440000D03*
X112564000Y-94440000D03*
%TO.C,J7*%
X147616000Y-75740000D03*
X147616000Y-77740000D03*
X147616000Y-79740000D03*
X147616000Y-81740000D03*
%TO.C,J8*%
X147616000Y-88440000D03*
X147616000Y-90440000D03*
X147616000Y-92440000D03*
X147616000Y-94440000D03*
D13*
%TO.C,U1*%
X120650000Y-39014400D03*
X120650000Y-41554400D03*
X120650000Y-44094400D03*
X120650000Y-46634400D03*
X120650000Y-49174400D03*
X120650000Y-51714400D03*
X120650000Y-54254400D03*
X120650000Y-56794400D03*
X120650000Y-59334400D03*
X120650000Y-61874400D03*
X120650000Y-64414400D03*
X120650000Y-66954400D03*
X120650000Y-69494400D03*
X120650000Y-72034400D03*
X120650000Y-74574400D03*
X120650000Y-77114400D03*
X120650000Y-79654400D03*
X120650000Y-82194400D03*
X120650000Y-84734400D03*
X120650000Y-87274400D03*
X120650000Y-89814400D03*
X120650000Y-92354400D03*
X120650000Y-94894400D03*
X120650000Y-97434400D03*
X135890000Y-39014400D03*
X135890000Y-41554400D03*
X135890000Y-44094400D03*
X135890000Y-46634400D03*
X135890000Y-49174400D03*
X135890000Y-51714400D03*
X135890000Y-54254400D03*
X135890000Y-56794400D03*
X135890000Y-59334400D03*
X135890000Y-61874400D03*
X135890000Y-64414400D03*
X135890000Y-66954400D03*
X135890000Y-69494400D03*
X135890000Y-72034400D03*
X135890000Y-74574400D03*
X135890000Y-77114400D03*
X135890000Y-79654400D03*
X135890000Y-82194400D03*
X135890000Y-84734400D03*
X135890000Y-87274400D03*
X135890000Y-89814400D03*
X135890000Y-92354400D03*
X135890000Y-94894400D03*
X135890000Y-97434400D03*
%TO.C,R3*%
X138684000Y-43586400D03*
%TO.C,R2*%
X138684000Y-46634400D03*
%TO.C,U4*%
X140970000Y-127508000D03*
X143510000Y-127508000D03*
%TO.C,R3*%
X146304000Y-43586400D03*
%TO.C,R2*%
X146304000Y-46634400D03*
D14*
%TO.C,U3*%
X126890000Y-149748000D03*
%TO.C,U4*%
X128270000Y-127508000D03*
%TO.C,U3*%
X129430000Y-149748000D03*
%TO.C,U4*%
X130810000Y-127508000D03*
%TO.C,U3*%
X131970000Y-149748000D03*
%TO.C,U4*%
X133350000Y-127508000D03*
%TO.C,U3*%
X134510000Y-149748000D03*
%TO.C,U4*%
X135890000Y-127508000D03*
%TO.C,U3*%
X137050000Y-149748000D03*
%TO.C,U4*%
X138430000Y-127508000D03*
%TO.C,U3*%
X139590000Y-149748000D03*
X142130000Y-149748000D03*
X144670000Y-149748000D03*
D15*
%TO.C,BZ1*%
X137708000Y-103886000D03*
X145328000Y-103886000D03*
D16*
%TO.C,J1*%
X141605000Y-34715500D03*
X145415000Y-34715500D03*
D17*
%TO.C,Q1*%
X141224000Y-51714400D03*
X143764000Y-51714400D03*
X146304000Y-51714400D03*
M02*
