%TF.GenerationSoftware,KiCad,Pcbnew,9.0.5*%
%TF.CreationDate,2026-03-16T21:49:08-07:00*%
%TF.ProjectId,Sensor_Sled,53656e73-6f72-45f5-936c-65642e6b6963,rev?*%
%TF.SameCoordinates,Original*%
%TF.FileFunction,Legend,Top*%
%TF.FilePolarity,Positive*%
%FSLAX46Y46*%
G04 Gerber Fmt 4.6, Leading zero omitted, Abs format (unit mm)*
G04 Created by KiCad (PCBNEW 9.0.5) date 2026-03-16 21:49:08*
%MOMM*%
%LPD*%
G01*
G04 APERTURE LIST*
%ADD10C,0.150000*%
%ADD11C,0.100000*%
%ADD12C,0.120000*%
%ADD13C,0.127000*%
%ADD14C,0.200000*%
G04 APERTURE END LIST*
D10*
X142871855Y-79709095D02*
X143586140Y-79709095D01*
X143586140Y-79709095D02*
X143728997Y-79756714D01*
X143728997Y-79756714D02*
X143824236Y-79851952D01*
X143824236Y-79851952D02*
X143871855Y-79994809D01*
X143871855Y-79994809D02*
X143871855Y-80090047D01*
X142871855Y-79328142D02*
X142871855Y-78661476D01*
X142871855Y-78661476D02*
X143871855Y-79090047D01*
X114918819Y-79073333D02*
X115633104Y-79073333D01*
X115633104Y-79073333D02*
X115775961Y-79120952D01*
X115775961Y-79120952D02*
X115871200Y-79216190D01*
X115871200Y-79216190D02*
X115918819Y-79359047D01*
X115918819Y-79359047D02*
X115918819Y-79454285D01*
X114918819Y-78120952D02*
X114918819Y-78597142D01*
X114918819Y-78597142D02*
X115395009Y-78644761D01*
X115395009Y-78644761D02*
X115347390Y-78597142D01*
X115347390Y-78597142D02*
X115299771Y-78501904D01*
X115299771Y-78501904D02*
X115299771Y-78263809D01*
X115299771Y-78263809D02*
X115347390Y-78168571D01*
X115347390Y-78168571D02*
X115395009Y-78120952D01*
X115395009Y-78120952D02*
X115490247Y-78073333D01*
X115490247Y-78073333D02*
X115728342Y-78073333D01*
X115728342Y-78073333D02*
X115823580Y-78120952D01*
X115823580Y-78120952D02*
X115871200Y-78168571D01*
X115871200Y-78168571D02*
X115918819Y-78263809D01*
X115918819Y-78263809D02*
X115918819Y-78501904D01*
X115918819Y-78501904D02*
X115871200Y-78597142D01*
X115871200Y-78597142D02*
X115823580Y-78644761D01*
X143176666Y-29350319D02*
X143176666Y-30064604D01*
X143176666Y-30064604D02*
X143129047Y-30207461D01*
X143129047Y-30207461D02*
X143033809Y-30302700D01*
X143033809Y-30302700D02*
X142890952Y-30350319D01*
X142890952Y-30350319D02*
X142795714Y-30350319D01*
X144176666Y-30350319D02*
X143605238Y-30350319D01*
X143890952Y-30350319D02*
X143890952Y-29350319D01*
X143890952Y-29350319D02*
X143795714Y-29493176D01*
X143795714Y-29493176D02*
X143700476Y-29588414D01*
X143700476Y-29588414D02*
X143605238Y-29636033D01*
X114918819Y-53673333D02*
X115633104Y-53673333D01*
X115633104Y-53673333D02*
X115775961Y-53720952D01*
X115775961Y-53720952D02*
X115871200Y-53816190D01*
X115871200Y-53816190D02*
X115918819Y-53959047D01*
X115918819Y-53959047D02*
X115918819Y-54054285D01*
X114918819Y-53292380D02*
X114918819Y-52673333D01*
X114918819Y-52673333D02*
X115299771Y-53006666D01*
X115299771Y-53006666D02*
X115299771Y-52863809D01*
X115299771Y-52863809D02*
X115347390Y-52768571D01*
X115347390Y-52768571D02*
X115395009Y-52720952D01*
X115395009Y-52720952D02*
X115490247Y-52673333D01*
X115490247Y-52673333D02*
X115728342Y-52673333D01*
X115728342Y-52673333D02*
X115823580Y-52720952D01*
X115823580Y-52720952D02*
X115871200Y-52768571D01*
X115871200Y-52768571D02*
X115918819Y-52863809D01*
X115918819Y-52863809D02*
X115918819Y-53149523D01*
X115918819Y-53149523D02*
X115871200Y-53244761D01*
X115871200Y-53244761D02*
X115823580Y-53292380D01*
X114918819Y-91773333D02*
X115633104Y-91773333D01*
X115633104Y-91773333D02*
X115775961Y-91820952D01*
X115775961Y-91820952D02*
X115871200Y-91916190D01*
X115871200Y-91916190D02*
X115918819Y-92059047D01*
X115918819Y-92059047D02*
X115918819Y-92154285D01*
X114918819Y-90868571D02*
X114918819Y-91059047D01*
X114918819Y-91059047D02*
X114966438Y-91154285D01*
X114966438Y-91154285D02*
X115014057Y-91201904D01*
X115014057Y-91201904D02*
X115156914Y-91297142D01*
X115156914Y-91297142D02*
X115347390Y-91344761D01*
X115347390Y-91344761D02*
X115728342Y-91344761D01*
X115728342Y-91344761D02*
X115823580Y-91297142D01*
X115823580Y-91297142D02*
X115871200Y-91249523D01*
X115871200Y-91249523D02*
X115918819Y-91154285D01*
X115918819Y-91154285D02*
X115918819Y-90963809D01*
X115918819Y-90963809D02*
X115871200Y-90868571D01*
X115871200Y-90868571D02*
X115823580Y-90820952D01*
X115823580Y-90820952D02*
X115728342Y-90773333D01*
X115728342Y-90773333D02*
X115490247Y-90773333D01*
X115490247Y-90773333D02*
X115395009Y-90820952D01*
X115395009Y-90820952D02*
X115347390Y-90868571D01*
X115347390Y-90868571D02*
X115299771Y-90963809D01*
X115299771Y-90963809D02*
X115299771Y-91154285D01*
X115299771Y-91154285D02*
X115347390Y-91249523D01*
X115347390Y-91249523D02*
X115395009Y-91297142D01*
X115395009Y-91297142D02*
X115490247Y-91344761D01*
X138019819Y-41681304D02*
X138829342Y-41681304D01*
X138829342Y-41681304D02*
X138924580Y-41633685D01*
X138924580Y-41633685D02*
X138972200Y-41586066D01*
X138972200Y-41586066D02*
X139019819Y-41490828D01*
X139019819Y-41490828D02*
X139019819Y-41300352D01*
X139019819Y-41300352D02*
X138972200Y-41205114D01*
X138972200Y-41205114D02*
X138924580Y-41157495D01*
X138924580Y-41157495D02*
X138829342Y-41109876D01*
X138829342Y-41109876D02*
X138019819Y-41109876D01*
X139019819Y-40109876D02*
X139019819Y-40681304D01*
X139019819Y-40395590D02*
X138019819Y-40395590D01*
X138019819Y-40395590D02*
X138162676Y-40490828D01*
X138162676Y-40490828D02*
X138257914Y-40586066D01*
X138257914Y-40586066D02*
X138305533Y-40681304D01*
X142327333Y-41671219D02*
X141994000Y-41195028D01*
X141755905Y-41671219D02*
X141755905Y-40671219D01*
X141755905Y-40671219D02*
X142136857Y-40671219D01*
X142136857Y-40671219D02*
X142232095Y-40718838D01*
X142232095Y-40718838D02*
X142279714Y-40766457D01*
X142279714Y-40766457D02*
X142327333Y-40861695D01*
X142327333Y-40861695D02*
X142327333Y-41004552D01*
X142327333Y-41004552D02*
X142279714Y-41099790D01*
X142279714Y-41099790D02*
X142232095Y-41147409D01*
X142232095Y-41147409D02*
X142136857Y-41195028D01*
X142136857Y-41195028D02*
X141755905Y-41195028D01*
X142660667Y-40671219D02*
X143279714Y-40671219D01*
X143279714Y-40671219D02*
X142946381Y-41052171D01*
X142946381Y-41052171D02*
X143089238Y-41052171D01*
X143089238Y-41052171D02*
X143184476Y-41099790D01*
X143184476Y-41099790D02*
X143232095Y-41147409D01*
X143232095Y-41147409D02*
X143279714Y-41242647D01*
X143279714Y-41242647D02*
X143279714Y-41480742D01*
X143279714Y-41480742D02*
X143232095Y-41575980D01*
X143232095Y-41575980D02*
X143184476Y-41623600D01*
X143184476Y-41623600D02*
X143089238Y-41671219D01*
X143089238Y-41671219D02*
X142803524Y-41671219D01*
X142803524Y-41671219D02*
X142708286Y-41623600D01*
X142708286Y-41623600D02*
X142660667Y-41575980D01*
X142871855Y-92308003D02*
X143586140Y-92308003D01*
X143586140Y-92308003D02*
X143728997Y-92355622D01*
X143728997Y-92355622D02*
X143824236Y-92450860D01*
X143824236Y-92450860D02*
X143871855Y-92593717D01*
X143871855Y-92593717D02*
X143871855Y-92688955D01*
X143300426Y-91688955D02*
X143252807Y-91784193D01*
X143252807Y-91784193D02*
X143205188Y-91831812D01*
X143205188Y-91831812D02*
X143109950Y-91879431D01*
X143109950Y-91879431D02*
X143062331Y-91879431D01*
X143062331Y-91879431D02*
X142967093Y-91831812D01*
X142967093Y-91831812D02*
X142919474Y-91784193D01*
X142919474Y-91784193D02*
X142871855Y-91688955D01*
X142871855Y-91688955D02*
X142871855Y-91498479D01*
X142871855Y-91498479D02*
X142919474Y-91403241D01*
X142919474Y-91403241D02*
X142967093Y-91355622D01*
X142967093Y-91355622D02*
X143062331Y-91308003D01*
X143062331Y-91308003D02*
X143109950Y-91308003D01*
X143109950Y-91308003D02*
X143205188Y-91355622D01*
X143205188Y-91355622D02*
X143252807Y-91403241D01*
X143252807Y-91403241D02*
X143300426Y-91498479D01*
X143300426Y-91498479D02*
X143300426Y-91688955D01*
X143300426Y-91688955D02*
X143348045Y-91784193D01*
X143348045Y-91784193D02*
X143395664Y-91831812D01*
X143395664Y-91831812D02*
X143490902Y-91879431D01*
X143490902Y-91879431D02*
X143681378Y-91879431D01*
X143681378Y-91879431D02*
X143776616Y-91831812D01*
X143776616Y-91831812D02*
X143824236Y-91784193D01*
X143824236Y-91784193D02*
X143871855Y-91688955D01*
X143871855Y-91688955D02*
X143871855Y-91498479D01*
X143871855Y-91498479D02*
X143824236Y-91403241D01*
X143824236Y-91403241D02*
X143776616Y-91355622D01*
X143776616Y-91355622D02*
X143681378Y-91308003D01*
X143681378Y-91308003D02*
X143490902Y-91308003D01*
X143490902Y-91308003D02*
X143395664Y-91355622D01*
X143395664Y-91355622D02*
X143348045Y-91403241D01*
X143348045Y-91403241D02*
X143300426Y-91498479D01*
X114918819Y-66373333D02*
X115633104Y-66373333D01*
X115633104Y-66373333D02*
X115775961Y-66420952D01*
X115775961Y-66420952D02*
X115871200Y-66516190D01*
X115871200Y-66516190D02*
X115918819Y-66659047D01*
X115918819Y-66659047D02*
X115918819Y-66754285D01*
X115252152Y-65468571D02*
X115918819Y-65468571D01*
X114871200Y-65706666D02*
X115585485Y-65944761D01*
X115585485Y-65944761D02*
X115585485Y-65325714D01*
X140597047Y-96647009D02*
X140739904Y-96694628D01*
X140739904Y-96694628D02*
X140787523Y-96742247D01*
X140787523Y-96742247D02*
X140835142Y-96837485D01*
X140835142Y-96837485D02*
X140835142Y-96980342D01*
X140835142Y-96980342D02*
X140787523Y-97075580D01*
X140787523Y-97075580D02*
X140739904Y-97123200D01*
X140739904Y-97123200D02*
X140644666Y-97170819D01*
X140644666Y-97170819D02*
X140263714Y-97170819D01*
X140263714Y-97170819D02*
X140263714Y-96170819D01*
X140263714Y-96170819D02*
X140597047Y-96170819D01*
X140597047Y-96170819D02*
X140692285Y-96218438D01*
X140692285Y-96218438D02*
X140739904Y-96266057D01*
X140739904Y-96266057D02*
X140787523Y-96361295D01*
X140787523Y-96361295D02*
X140787523Y-96456533D01*
X140787523Y-96456533D02*
X140739904Y-96551771D01*
X140739904Y-96551771D02*
X140692285Y-96599390D01*
X140692285Y-96599390D02*
X140597047Y-96647009D01*
X140597047Y-96647009D02*
X140263714Y-96647009D01*
X141168476Y-96170819D02*
X141835142Y-96170819D01*
X141835142Y-96170819D02*
X141168476Y-97170819D01*
X141168476Y-97170819D02*
X141835142Y-97170819D01*
X142739904Y-97170819D02*
X142168476Y-97170819D01*
X142454190Y-97170819D02*
X142454190Y-96170819D01*
X142454190Y-96170819D02*
X142358952Y-96313676D01*
X142358952Y-96313676D02*
X142263714Y-96408914D01*
X142263714Y-96408914D02*
X142168476Y-96456533D01*
D11*
X140555313Y-106730763D02*
X140555313Y-107540286D01*
X140555313Y-107540286D02*
X140602932Y-107635524D01*
X140602932Y-107635524D02*
X140650551Y-107683144D01*
X140650551Y-107683144D02*
X140745789Y-107730763D01*
X140745789Y-107730763D02*
X140936265Y-107730763D01*
X140936265Y-107730763D02*
X141031503Y-107683144D01*
X141031503Y-107683144D02*
X141079122Y-107635524D01*
X141079122Y-107635524D02*
X141126741Y-107540286D01*
X141126741Y-107540286D02*
X141126741Y-106730763D01*
X142031503Y-107064096D02*
X142031503Y-107730763D01*
X141793408Y-106683144D02*
X141555313Y-107397429D01*
X141555313Y-107397429D02*
X142174360Y-107397429D01*
D10*
X114876819Y-40957333D02*
X115591104Y-40957333D01*
X115591104Y-40957333D02*
X115733961Y-41004952D01*
X115733961Y-41004952D02*
X115829200Y-41100190D01*
X115829200Y-41100190D02*
X115876819Y-41243047D01*
X115876819Y-41243047D02*
X115876819Y-41338285D01*
X114972057Y-40528761D02*
X114924438Y-40481142D01*
X114924438Y-40481142D02*
X114876819Y-40385904D01*
X114876819Y-40385904D02*
X114876819Y-40147809D01*
X114876819Y-40147809D02*
X114924438Y-40052571D01*
X114924438Y-40052571D02*
X114972057Y-40004952D01*
X114972057Y-40004952D02*
X115067295Y-39957333D01*
X115067295Y-39957333D02*
X115162533Y-39957333D01*
X115162533Y-39957333D02*
X115305390Y-40004952D01*
X115305390Y-40004952D02*
X115876819Y-40576380D01*
X115876819Y-40576380D02*
X115876819Y-39957333D01*
X145713761Y-56539457D02*
X145618523Y-56491838D01*
X145618523Y-56491838D02*
X145523285Y-56396600D01*
X145523285Y-56396600D02*
X145380428Y-56253742D01*
X145380428Y-56253742D02*
X145285190Y-56206123D01*
X145285190Y-56206123D02*
X145189952Y-56206123D01*
X145237571Y-56444219D02*
X145142333Y-56396600D01*
X145142333Y-56396600D02*
X145047095Y-56301361D01*
X145047095Y-56301361D02*
X144999476Y-56110885D01*
X144999476Y-56110885D02*
X144999476Y-55777552D01*
X144999476Y-55777552D02*
X145047095Y-55587076D01*
X145047095Y-55587076D02*
X145142333Y-55491838D01*
X145142333Y-55491838D02*
X145237571Y-55444219D01*
X145237571Y-55444219D02*
X145428047Y-55444219D01*
X145428047Y-55444219D02*
X145523285Y-55491838D01*
X145523285Y-55491838D02*
X145618523Y-55587076D01*
X145618523Y-55587076D02*
X145666142Y-55777552D01*
X145666142Y-55777552D02*
X145666142Y-56110885D01*
X145666142Y-56110885D02*
X145618523Y-56301361D01*
X145618523Y-56301361D02*
X145523285Y-56396600D01*
X145523285Y-56396600D02*
X145428047Y-56444219D01*
X145428047Y-56444219D02*
X145237571Y-56444219D01*
X146618523Y-56444219D02*
X146047095Y-56444219D01*
X146332809Y-56444219D02*
X146332809Y-55444219D01*
X146332809Y-55444219D02*
X146237571Y-55587076D01*
X146237571Y-55587076D02*
X146142333Y-55682314D01*
X146142333Y-55682314D02*
X146047095Y-55729933D01*
X142327333Y-49533207D02*
X141994000Y-49057016D01*
X141755905Y-49533207D02*
X141755905Y-48533207D01*
X141755905Y-48533207D02*
X142136857Y-48533207D01*
X142136857Y-48533207D02*
X142232095Y-48580826D01*
X142232095Y-48580826D02*
X142279714Y-48628445D01*
X142279714Y-48628445D02*
X142327333Y-48723683D01*
X142327333Y-48723683D02*
X142327333Y-48866540D01*
X142327333Y-48866540D02*
X142279714Y-48961778D01*
X142279714Y-48961778D02*
X142232095Y-49009397D01*
X142232095Y-49009397D02*
X142136857Y-49057016D01*
X142136857Y-49057016D02*
X141755905Y-49057016D01*
X142708286Y-48628445D02*
X142755905Y-48580826D01*
X142755905Y-48580826D02*
X142851143Y-48533207D01*
X142851143Y-48533207D02*
X143089238Y-48533207D01*
X143089238Y-48533207D02*
X143184476Y-48580826D01*
X143184476Y-48580826D02*
X143232095Y-48628445D01*
X143232095Y-48628445D02*
X143279714Y-48723683D01*
X143279714Y-48723683D02*
X143279714Y-48818921D01*
X143279714Y-48818921D02*
X143232095Y-48961778D01*
X143232095Y-48961778D02*
X142660667Y-49533207D01*
X142660667Y-49533207D02*
X143279714Y-49533207D01*
D11*
X135272095Y-128631419D02*
X135272095Y-129440942D01*
X135272095Y-129440942D02*
X135319714Y-129536180D01*
X135319714Y-129536180D02*
X135367333Y-129583800D01*
X135367333Y-129583800D02*
X135462571Y-129631419D01*
X135462571Y-129631419D02*
X135653047Y-129631419D01*
X135653047Y-129631419D02*
X135748285Y-129583800D01*
X135748285Y-129583800D02*
X135795904Y-129536180D01*
X135795904Y-129536180D02*
X135843523Y-129440942D01*
X135843523Y-129440942D02*
X135843523Y-128631419D01*
X136224476Y-128631419D02*
X136843523Y-128631419D01*
X136843523Y-128631419D02*
X136510190Y-129012371D01*
X136510190Y-129012371D02*
X136653047Y-129012371D01*
X136653047Y-129012371D02*
X136748285Y-129059990D01*
X136748285Y-129059990D02*
X136795904Y-129107609D01*
X136795904Y-129107609D02*
X136843523Y-129202847D01*
X136843523Y-129202847D02*
X136843523Y-129440942D01*
X136843523Y-129440942D02*
X136795904Y-129536180D01*
X136795904Y-129536180D02*
X136748285Y-129583800D01*
X136748285Y-129583800D02*
X136653047Y-129631419D01*
X136653047Y-129631419D02*
X136367333Y-129631419D01*
X136367333Y-129631419D02*
X136272095Y-129583800D01*
X136272095Y-129583800D02*
X136224476Y-129536180D01*
D12*
%TO.C,J7*%
X144706000Y-73680000D02*
X144706000Y-83800000D01*
X144706000Y-83800000D02*
X149426000Y-83800000D01*
X145316000Y-74290000D02*
X145316000Y-83190000D01*
X145316000Y-76640000D02*
X145816000Y-76640000D01*
X145316000Y-76740000D02*
X145816000Y-76740000D01*
X145316000Y-78640000D02*
X145816000Y-78640000D01*
X145316000Y-78740000D02*
X145816000Y-78740000D01*
X145316000Y-80640000D02*
X145816000Y-80640000D01*
X145316000Y-80740000D02*
X145816000Y-80740000D01*
X145316000Y-83190000D02*
X148816000Y-83190000D01*
X145816000Y-76640000D02*
X145816000Y-76840000D01*
X145816000Y-76840000D02*
X145316000Y-76840000D01*
X145816000Y-78640000D02*
X145816000Y-78840000D01*
X145816000Y-78840000D02*
X145316000Y-78840000D01*
X145816000Y-80640000D02*
X145816000Y-80840000D01*
X145816000Y-80840000D02*
X145316000Y-80840000D01*
X146816000Y-73680000D02*
X146816000Y-74290000D01*
X146816000Y-83800000D02*
X146816000Y-83190000D01*
X148116000Y-73680000D02*
X148116000Y-74290000D01*
X148116000Y-83800000D02*
X148116000Y-83190000D01*
X148816000Y-74290000D02*
X145316000Y-74290000D01*
X148816000Y-76240000D02*
X148816000Y-74290000D01*
X148816000Y-81240000D02*
X149426000Y-81240000D01*
X148816000Y-83190000D02*
X148816000Y-81240000D01*
X149426000Y-73680000D02*
X144706000Y-73680000D01*
X149426000Y-75440000D02*
X149626000Y-75440000D01*
X149426000Y-76240000D02*
X148816000Y-76240000D01*
X149426000Y-83800000D02*
X149426000Y-73680000D01*
X149526000Y-75440000D02*
X149526000Y-75140000D01*
X149626000Y-75140000D02*
X149426000Y-75140000D01*
X149626000Y-75440000D02*
X149626000Y-75140000D01*
X149726000Y-73380000D02*
X148476000Y-73380000D01*
X149726000Y-74630000D02*
X149726000Y-73380000D01*
%TO.C,J5*%
X109654000Y-73680000D02*
X109654000Y-83800000D01*
X109654000Y-83800000D02*
X114374000Y-83800000D01*
X110264000Y-74290000D02*
X110264000Y-83190000D01*
X110264000Y-76640000D02*
X110764000Y-76640000D01*
X110264000Y-76740000D02*
X110764000Y-76740000D01*
X110264000Y-78640000D02*
X110764000Y-78640000D01*
X110264000Y-78740000D02*
X110764000Y-78740000D01*
X110264000Y-80640000D02*
X110764000Y-80640000D01*
X110264000Y-80740000D02*
X110764000Y-80740000D01*
X110264000Y-83190000D02*
X113764000Y-83190000D01*
X110764000Y-76640000D02*
X110764000Y-76840000D01*
X110764000Y-76840000D02*
X110264000Y-76840000D01*
X110764000Y-78640000D02*
X110764000Y-78840000D01*
X110764000Y-78840000D02*
X110264000Y-78840000D01*
X110764000Y-80640000D02*
X110764000Y-80840000D01*
X110764000Y-80840000D02*
X110264000Y-80840000D01*
X111764000Y-73680000D02*
X111764000Y-74290000D01*
X111764000Y-83800000D02*
X111764000Y-83190000D01*
X113064000Y-73680000D02*
X113064000Y-74290000D01*
X113064000Y-83800000D02*
X113064000Y-83190000D01*
X113764000Y-74290000D02*
X110264000Y-74290000D01*
X113764000Y-76240000D02*
X113764000Y-74290000D01*
X113764000Y-81240000D02*
X114374000Y-81240000D01*
X113764000Y-83190000D02*
X113764000Y-81240000D01*
X114374000Y-73680000D02*
X109654000Y-73680000D01*
X114374000Y-75440000D02*
X114574000Y-75440000D01*
X114374000Y-76240000D02*
X113764000Y-76240000D01*
X114374000Y-83800000D02*
X114374000Y-73680000D01*
X114474000Y-75440000D02*
X114474000Y-75140000D01*
X114574000Y-75140000D02*
X114374000Y-75140000D01*
X114574000Y-75440000D02*
X114574000Y-75140000D01*
X114674000Y-73380000D02*
X113424000Y-73380000D01*
X114674000Y-74630000D02*
X114674000Y-73380000D01*
%TO.C,J1*%
X139585000Y-30895500D02*
X147435000Y-30895500D01*
X139585000Y-38435500D02*
X139585000Y-30895500D01*
X141305000Y-38435500D02*
X139585000Y-38435500D01*
X147435000Y-30895500D02*
X147435000Y-38435500D01*
X147435000Y-38435500D02*
X141905000Y-38435500D01*
X142045000Y-39045500D02*
X141165000Y-39045500D01*
X141605000Y-38435500D01*
X142045000Y-39045500D01*
G36*
X142045000Y-39045500D02*
G01*
X141165000Y-39045500D01*
X141605000Y-38435500D01*
X142045000Y-39045500D01*
G37*
%TO.C,J3*%
X109654000Y-48280000D02*
X109654000Y-58400000D01*
X109654000Y-58400000D02*
X114374000Y-58400000D01*
X110264000Y-48890000D02*
X110264000Y-57790000D01*
X110264000Y-51240000D02*
X110764000Y-51240000D01*
X110264000Y-51340000D02*
X110764000Y-51340000D01*
X110264000Y-53240000D02*
X110764000Y-53240000D01*
X110264000Y-53340000D02*
X110764000Y-53340000D01*
X110264000Y-55240000D02*
X110764000Y-55240000D01*
X110264000Y-55340000D02*
X110764000Y-55340000D01*
X110264000Y-57790000D02*
X113764000Y-57790000D01*
X110764000Y-51240000D02*
X110764000Y-51440000D01*
X110764000Y-51440000D02*
X110264000Y-51440000D01*
X110764000Y-53240000D02*
X110764000Y-53440000D01*
X110764000Y-53440000D02*
X110264000Y-53440000D01*
X110764000Y-55240000D02*
X110764000Y-55440000D01*
X110764000Y-55440000D02*
X110264000Y-55440000D01*
X111764000Y-48280000D02*
X111764000Y-48890000D01*
X111764000Y-58400000D02*
X111764000Y-57790000D01*
X113064000Y-48280000D02*
X113064000Y-48890000D01*
X113064000Y-58400000D02*
X113064000Y-57790000D01*
X113764000Y-48890000D02*
X110264000Y-48890000D01*
X113764000Y-50840000D02*
X113764000Y-48890000D01*
X113764000Y-55840000D02*
X114374000Y-55840000D01*
X113764000Y-57790000D02*
X113764000Y-55840000D01*
X114374000Y-48280000D02*
X109654000Y-48280000D01*
X114374000Y-50040000D02*
X114574000Y-50040000D01*
X114374000Y-50840000D02*
X113764000Y-50840000D01*
X114374000Y-58400000D02*
X114374000Y-48280000D01*
X114474000Y-50040000D02*
X114474000Y-49740000D01*
X114574000Y-49740000D02*
X114374000Y-49740000D01*
X114574000Y-50040000D02*
X114574000Y-49740000D01*
X114674000Y-47980000D02*
X113424000Y-47980000D01*
X114674000Y-49230000D02*
X114674000Y-47980000D01*
%TO.C,J6*%
X109654000Y-86380000D02*
X109654000Y-96500000D01*
X109654000Y-96500000D02*
X114374000Y-96500000D01*
X110264000Y-86990000D02*
X110264000Y-95890000D01*
X110264000Y-89340000D02*
X110764000Y-89340000D01*
X110264000Y-89440000D02*
X110764000Y-89440000D01*
X110264000Y-91340000D02*
X110764000Y-91340000D01*
X110264000Y-91440000D02*
X110764000Y-91440000D01*
X110264000Y-93340000D02*
X110764000Y-93340000D01*
X110264000Y-93440000D02*
X110764000Y-93440000D01*
X110264000Y-95890000D02*
X113764000Y-95890000D01*
X110764000Y-89340000D02*
X110764000Y-89540000D01*
X110764000Y-89540000D02*
X110264000Y-89540000D01*
X110764000Y-91340000D02*
X110764000Y-91540000D01*
X110764000Y-91540000D02*
X110264000Y-91540000D01*
X110764000Y-93340000D02*
X110764000Y-93540000D01*
X110764000Y-93540000D02*
X110264000Y-93540000D01*
X111764000Y-86380000D02*
X111764000Y-86990000D01*
X111764000Y-96500000D02*
X111764000Y-95890000D01*
X113064000Y-86380000D02*
X113064000Y-86990000D01*
X113064000Y-96500000D02*
X113064000Y-95890000D01*
X113764000Y-86990000D02*
X110264000Y-86990000D01*
X113764000Y-88940000D02*
X113764000Y-86990000D01*
X113764000Y-93940000D02*
X114374000Y-93940000D01*
X113764000Y-95890000D02*
X113764000Y-93940000D01*
X114374000Y-86380000D02*
X109654000Y-86380000D01*
X114374000Y-88140000D02*
X114574000Y-88140000D01*
X114374000Y-88940000D02*
X113764000Y-88940000D01*
X114374000Y-96500000D02*
X114374000Y-86380000D01*
X114474000Y-88140000D02*
X114474000Y-87840000D01*
X114574000Y-87840000D02*
X114374000Y-87840000D01*
X114574000Y-88140000D02*
X114574000Y-87840000D01*
X114674000Y-86080000D02*
X113424000Y-86080000D01*
X114674000Y-87330000D02*
X114674000Y-86080000D01*
D13*
%TO.C,U1*%
X119380000Y-37744400D02*
X124240000Y-37744400D01*
X119380000Y-98704400D02*
X119380000Y-37744400D01*
X124240000Y-37044400D02*
X132300000Y-37044400D01*
X124240000Y-37744400D02*
X124240000Y-37044400D01*
X132300000Y-37744400D02*
X132300000Y-37044400D01*
X137160000Y-37744400D02*
X132300000Y-37744400D01*
X137160000Y-37744400D02*
X137160000Y-98704400D01*
X137160000Y-98704400D02*
X119380000Y-98704400D01*
D14*
X118870000Y-44094400D02*
G75*
G02*
X118670000Y-44094400I-100000J0D01*
G01*
X118670000Y-44094400D02*
G75*
G02*
X118870000Y-44094400I100000J0D01*
G01*
D12*
%TO.C,R3*%
X139224000Y-42216400D02*
X145764000Y-42216400D01*
X139224000Y-42546400D02*
X139224000Y-42216400D01*
X139224000Y-44626400D02*
X139224000Y-44956400D01*
X139224000Y-44956400D02*
X145764000Y-44956400D01*
X145764000Y-42216400D02*
X145764000Y-42546400D01*
X145764000Y-44956400D02*
X145764000Y-44626400D01*
%TO.C,J8*%
X144706000Y-86380000D02*
X144706000Y-96500000D01*
X144706000Y-96500000D02*
X149426000Y-96500000D01*
X145316000Y-86990000D02*
X145316000Y-95890000D01*
X145316000Y-89340000D02*
X145816000Y-89340000D01*
X145316000Y-89440000D02*
X145816000Y-89440000D01*
X145316000Y-91340000D02*
X145816000Y-91340000D01*
X145316000Y-91440000D02*
X145816000Y-91440000D01*
X145316000Y-93340000D02*
X145816000Y-93340000D01*
X145316000Y-93440000D02*
X145816000Y-93440000D01*
X145316000Y-95890000D02*
X148816000Y-95890000D01*
X145816000Y-89340000D02*
X145816000Y-89540000D01*
X145816000Y-89540000D02*
X145316000Y-89540000D01*
X145816000Y-91340000D02*
X145816000Y-91540000D01*
X145816000Y-91540000D02*
X145316000Y-91540000D01*
X145816000Y-93340000D02*
X145816000Y-93540000D01*
X145816000Y-93540000D02*
X145316000Y-93540000D01*
X146816000Y-86380000D02*
X146816000Y-86990000D01*
X146816000Y-96500000D02*
X146816000Y-95890000D01*
X148116000Y-86380000D02*
X148116000Y-86990000D01*
X148116000Y-96500000D02*
X148116000Y-95890000D01*
X148816000Y-86990000D02*
X145316000Y-86990000D01*
X148816000Y-88940000D02*
X148816000Y-86990000D01*
X148816000Y-93940000D02*
X149426000Y-93940000D01*
X148816000Y-95890000D02*
X148816000Y-93940000D01*
X149426000Y-86380000D02*
X144706000Y-86380000D01*
X149426000Y-88140000D02*
X149626000Y-88140000D01*
X149426000Y-88940000D02*
X148816000Y-88940000D01*
X149426000Y-96500000D02*
X149426000Y-86380000D01*
X149526000Y-88140000D02*
X149526000Y-87840000D01*
X149626000Y-87840000D02*
X149426000Y-87840000D01*
X149626000Y-88140000D02*
X149626000Y-87840000D01*
X149726000Y-86080000D02*
X148476000Y-86080000D01*
X149726000Y-87330000D02*
X149726000Y-86080000D01*
%TO.C,J4*%
X109654000Y-60980000D02*
X109654000Y-71100000D01*
X109654000Y-71100000D02*
X114374000Y-71100000D01*
X110264000Y-61590000D02*
X110264000Y-70490000D01*
X110264000Y-63940000D02*
X110764000Y-63940000D01*
X110264000Y-64040000D02*
X110764000Y-64040000D01*
X110264000Y-65940000D02*
X110764000Y-65940000D01*
X110264000Y-66040000D02*
X110764000Y-66040000D01*
X110264000Y-67940000D02*
X110764000Y-67940000D01*
X110264000Y-68040000D02*
X110764000Y-68040000D01*
X110264000Y-70490000D02*
X113764000Y-70490000D01*
X110764000Y-63940000D02*
X110764000Y-64140000D01*
X110764000Y-64140000D02*
X110264000Y-64140000D01*
X110764000Y-65940000D02*
X110764000Y-66140000D01*
X110764000Y-66140000D02*
X110264000Y-66140000D01*
X110764000Y-67940000D02*
X110764000Y-68140000D01*
X110764000Y-68140000D02*
X110264000Y-68140000D01*
X111764000Y-60980000D02*
X111764000Y-61590000D01*
X111764000Y-71100000D02*
X111764000Y-70490000D01*
X113064000Y-60980000D02*
X113064000Y-61590000D01*
X113064000Y-71100000D02*
X113064000Y-70490000D01*
X113764000Y-61590000D02*
X110264000Y-61590000D01*
X113764000Y-63540000D02*
X113764000Y-61590000D01*
X113764000Y-68540000D02*
X114374000Y-68540000D01*
X113764000Y-70490000D02*
X113764000Y-68540000D01*
X114374000Y-60980000D02*
X109654000Y-60980000D01*
X114374000Y-62740000D02*
X114574000Y-62740000D01*
X114374000Y-63540000D02*
X113764000Y-63540000D01*
X114374000Y-71100000D02*
X114374000Y-60980000D01*
X114474000Y-62740000D02*
X114474000Y-62440000D01*
X114574000Y-62440000D02*
X114374000Y-62440000D01*
X114574000Y-62740000D02*
X114574000Y-62440000D01*
X114674000Y-60680000D02*
X113424000Y-60680000D01*
X114674000Y-61930000D02*
X114674000Y-60680000D01*
%TO.C,BZ1*%
X147548600Y-103886000D02*
G75*
G02*
X135407400Y-103886000I-6070600J0D01*
G01*
X135407400Y-103886000D02*
G75*
G02*
X147548600Y-103886000I6070600J0D01*
G01*
%TO.C,U4*%
D11*
X123190000Y-112268000D02*
X148590000Y-112268000D01*
X148590000Y-130048000D01*
X123190000Y-130048000D01*
X123190000Y-112268000D01*
D12*
%TO.C,J2*%
X109612000Y-35564000D02*
X109612000Y-45684000D01*
X109612000Y-45684000D02*
X114332000Y-45684000D01*
X110222000Y-36174000D02*
X110222000Y-45074000D01*
X110222000Y-38524000D02*
X110722000Y-38524000D01*
X110222000Y-38624000D02*
X110722000Y-38624000D01*
X110222000Y-40524000D02*
X110722000Y-40524000D01*
X110222000Y-40624000D02*
X110722000Y-40624000D01*
X110222000Y-42524000D02*
X110722000Y-42524000D01*
X110222000Y-42624000D02*
X110722000Y-42624000D01*
X110222000Y-45074000D02*
X113722000Y-45074000D01*
X110722000Y-38524000D02*
X110722000Y-38724000D01*
X110722000Y-38724000D02*
X110222000Y-38724000D01*
X110722000Y-40524000D02*
X110722000Y-40724000D01*
X110722000Y-40724000D02*
X110222000Y-40724000D01*
X110722000Y-42524000D02*
X110722000Y-42724000D01*
X110722000Y-42724000D02*
X110222000Y-42724000D01*
X111722000Y-35564000D02*
X111722000Y-36174000D01*
X111722000Y-45684000D02*
X111722000Y-45074000D01*
X113022000Y-35564000D02*
X113022000Y-36174000D01*
X113022000Y-45684000D02*
X113022000Y-45074000D01*
X113722000Y-36174000D02*
X110222000Y-36174000D01*
X113722000Y-38124000D02*
X113722000Y-36174000D01*
X113722000Y-43124000D02*
X114332000Y-43124000D01*
X113722000Y-45074000D02*
X113722000Y-43124000D01*
X114332000Y-35564000D02*
X109612000Y-35564000D01*
X114332000Y-37324000D02*
X114532000Y-37324000D01*
X114332000Y-38124000D02*
X113722000Y-38124000D01*
X114332000Y-45684000D02*
X114332000Y-35564000D01*
X114432000Y-37324000D02*
X114432000Y-37024000D01*
X114532000Y-37024000D02*
X114332000Y-37024000D01*
X114532000Y-37324000D02*
X114532000Y-37024000D01*
X114632000Y-35264000D02*
X113382000Y-35264000D01*
X114632000Y-36514000D02*
X114632000Y-35264000D01*
D13*
%TO.C,Q1*%
X138494000Y-50304400D02*
X138494000Y-55004400D01*
X138494000Y-55004400D02*
X149034000Y-55004400D01*
X149034000Y-50304400D02*
X138494000Y-50304400D01*
X149034000Y-55004400D02*
X149034000Y-50304400D01*
D14*
X146404000Y-49794400D02*
G75*
G02*
X146204000Y-49794400I-100000J0D01*
G01*
X146204000Y-49794400D02*
G75*
G02*
X146404000Y-49794400I100000J0D01*
G01*
D12*
%TO.C,R2*%
X139224000Y-45264400D02*
X145764000Y-45264400D01*
X139224000Y-45594400D02*
X139224000Y-45264400D01*
X139224000Y-47674400D02*
X139224000Y-48004400D01*
X139224000Y-48004400D02*
X145764000Y-48004400D01*
X145764000Y-45264400D02*
X145764000Y-45594400D01*
X145764000Y-48004400D02*
X145764000Y-47674400D01*
%TO.C,U3*%
D11*
X125890000Y-134748000D02*
X145890000Y-134748000D01*
X145890000Y-150748000D01*
X125890000Y-150748000D01*
X125890000Y-134748000D01*
%TD*%
M02*
