%TF.GenerationSoftware,KiCad,Pcbnew,9.0.5*%
%TF.CreationDate,2026-03-16T21:51:03-07:00*%
%TF.ProjectId,High_Voltage_Sled,48696768-5f56-46f6-9c74-6167655f536c,rev?*%
%TF.SameCoordinates,Original*%
%TF.FileFunction,Copper,L1,Top*%
%TF.FilePolarity,Positive*%
%FSLAX46Y46*%
G04 Gerber Fmt 4.6, Leading zero omitted, Abs format (unit mm)*
G04 Created by KiCad (PCBNEW 9.0.5) date 2026-03-16 21:51:03*
%MOMM*%
%LPD*%
G01*
G04 APERTURE LIST*
G04 Aperture macros list*
%AMRoundRect*
0 Rectangle with rounded corners*
0 $1 Rounding radius*
0 $2 $3 $4 $5 $6 $7 $8 $9 X,Y pos of 4 corners*
0 Add a 4 corners polygon primitive as box body*
4,1,4,$2,$3,$4,$5,$6,$7,$8,$9,$2,$3,0*
0 Add four circle primitives for the rounded corners*
1,1,$1+$1,$2,$3*
1,1,$1+$1,$4,$5*
1,1,$1+$1,$6,$7*
1,1,$1+$1,$8,$9*
0 Add four rect primitives between the rounded corners*
20,1,$1+$1,$2,$3,$4,$5,0*
20,1,$1+$1,$4,$5,$6,$7,0*
20,1,$1+$1,$6,$7,$8,$9,0*
20,1,$1+$1,$8,$9,$2,$3,0*%
G04 Aperture macros list end*
%ADD10C,0.300000*%
%TA.AperFunction,NonConductor*%
%ADD11C,0.300000*%
%TD*%
%TA.AperFunction,ComponentPad*%
%ADD12C,1.600000*%
%TD*%
%TA.AperFunction,ComponentPad*%
%ADD13R,1.850000X1.850000*%
%TD*%
%TA.AperFunction,ComponentPad*%
%ADD14C,1.850000*%
%TD*%
%TA.AperFunction,ComponentPad*%
%ADD15RoundRect,0.250000X0.625000X-0.350000X0.625000X0.350000X-0.625000X0.350000X-0.625000X-0.350000X0*%
%TD*%
%TA.AperFunction,ComponentPad*%
%ADD16O,1.750000X1.200000*%
%TD*%
%TA.AperFunction,ComponentPad*%
%ADD17RoundRect,0.250000X-0.625000X0.350000X-0.625000X-0.350000X0.625000X-0.350000X0.625000X0.350000X0*%
%TD*%
%TA.AperFunction,ComponentPad*%
%ADD18RoundRect,0.250000X1.050000X1.050000X-1.050000X1.050000X-1.050000X-1.050000X1.050000X-1.050000X0*%
%TD*%
%TA.AperFunction,ComponentPad*%
%ADD19C,2.600000*%
%TD*%
%TA.AperFunction,ComponentPad*%
%ADD20RoundRect,0.250000X-1.050000X1.050000X-1.050000X-1.050000X1.050000X-1.050000X1.050000X1.050000X0*%
%TD*%
%TA.AperFunction,ComponentPad*%
%ADD21RoundRect,0.250000X1.050000X-1.050000X1.050000X1.050000X-1.050000X1.050000X-1.050000X-1.050000X0*%
%TD*%
%TA.AperFunction,ComponentPad*%
%ADD22RoundRect,0.250000X-1.050000X-1.050000X1.050000X-1.050000X1.050000X1.050000X-1.050000X1.050000X0*%
%TD*%
%TA.AperFunction,ComponentPad*%
%ADD23R,1.700000X1.700000*%
%TD*%
%TA.AperFunction,ComponentPad*%
%ADD24C,1.700000*%
%TD*%
%TA.AperFunction,ComponentPad*%
%ADD25C,1.750000*%
%TD*%
%TA.AperFunction,ComponentPad*%
%ADD26RoundRect,0.250000X-1.350000X-1.350000X1.350000X-1.350000X1.350000X1.350000X-1.350000X1.350000X0*%
%TD*%
%TA.AperFunction,ComponentPad*%
%ADD27C,3.200000*%
%TD*%
%TA.AperFunction,ComponentPad*%
%ADD28C,1.200000*%
%TD*%
%TA.AperFunction,ComponentPad*%
%ADD29RoundRect,0.250000X1.350000X1.350000X-1.350000X1.350000X-1.350000X-1.350000X1.350000X-1.350000X0*%
%TD*%
%TA.AperFunction,ViaPad*%
%ADD30C,0.600000*%
%TD*%
%TA.AperFunction,Conductor*%
%ADD31C,3.540000*%
%TD*%
%TA.AperFunction,Conductor*%
%ADD32C,1.000000*%
%TD*%
%TA.AperFunction,Conductor*%
%ADD33C,2.000000*%
%TD*%
%TA.AperFunction,Conductor*%
%ADD34C,3.000000*%
%TD*%
%TA.AperFunction,Conductor*%
%ADD35C,0.300000*%
%TD*%
G04 APERTURE END LIST*
D10*
D11*
X186488000Y-183808828D02*
X186488000Y-182308828D01*
X186488000Y-183023114D02*
X187345143Y-183023114D01*
X187345143Y-183808828D02*
X187345143Y-182308828D01*
X188059429Y-183808828D02*
X188059429Y-182808828D01*
X188059429Y-182308828D02*
X187988001Y-182380257D01*
X187988001Y-182380257D02*
X188059429Y-182451685D01*
X188059429Y-182451685D02*
X188130858Y-182380257D01*
X188130858Y-182380257D02*
X188059429Y-182308828D01*
X188059429Y-182308828D02*
X188059429Y-182451685D01*
X189416573Y-182808828D02*
X189416573Y-184023114D01*
X189416573Y-184023114D02*
X189345144Y-184165971D01*
X189345144Y-184165971D02*
X189273715Y-184237400D01*
X189273715Y-184237400D02*
X189130858Y-184308828D01*
X189130858Y-184308828D02*
X188916573Y-184308828D01*
X188916573Y-184308828D02*
X188773715Y-184237400D01*
X189416573Y-183737400D02*
X189273715Y-183808828D01*
X189273715Y-183808828D02*
X188988001Y-183808828D01*
X188988001Y-183808828D02*
X188845144Y-183737400D01*
X188845144Y-183737400D02*
X188773715Y-183665971D01*
X188773715Y-183665971D02*
X188702287Y-183523114D01*
X188702287Y-183523114D02*
X188702287Y-183094542D01*
X188702287Y-183094542D02*
X188773715Y-182951685D01*
X188773715Y-182951685D02*
X188845144Y-182880257D01*
X188845144Y-182880257D02*
X188988001Y-182808828D01*
X188988001Y-182808828D02*
X189273715Y-182808828D01*
X189273715Y-182808828D02*
X189416573Y-182880257D01*
X190130858Y-183808828D02*
X190130858Y-182308828D01*
X190773716Y-183808828D02*
X190773716Y-183023114D01*
X190773716Y-183023114D02*
X190702287Y-182880257D01*
X190702287Y-182880257D02*
X190559430Y-182808828D01*
X190559430Y-182808828D02*
X190345144Y-182808828D01*
X190345144Y-182808828D02*
X190202287Y-182880257D01*
X190202287Y-182880257D02*
X190130858Y-182951685D01*
X192416573Y-182308828D02*
X192916573Y-183808828D01*
X192916573Y-183808828D02*
X193416573Y-182308828D01*
X194130858Y-183808828D02*
X193988001Y-183737400D01*
X193988001Y-183737400D02*
X193916572Y-183665971D01*
X193916572Y-183665971D02*
X193845144Y-183523114D01*
X193845144Y-183523114D02*
X193845144Y-183094542D01*
X193845144Y-183094542D02*
X193916572Y-182951685D01*
X193916572Y-182951685D02*
X193988001Y-182880257D01*
X193988001Y-182880257D02*
X194130858Y-182808828D01*
X194130858Y-182808828D02*
X194345144Y-182808828D01*
X194345144Y-182808828D02*
X194488001Y-182880257D01*
X194488001Y-182880257D02*
X194559430Y-182951685D01*
X194559430Y-182951685D02*
X194630858Y-183094542D01*
X194630858Y-183094542D02*
X194630858Y-183523114D01*
X194630858Y-183523114D02*
X194559430Y-183665971D01*
X194559430Y-183665971D02*
X194488001Y-183737400D01*
X194488001Y-183737400D02*
X194345144Y-183808828D01*
X194345144Y-183808828D02*
X194130858Y-183808828D01*
X195488001Y-183808828D02*
X195345144Y-183737400D01*
X195345144Y-183737400D02*
X195273715Y-183594542D01*
X195273715Y-183594542D02*
X195273715Y-182308828D01*
X195845144Y-182808828D02*
X196416572Y-182808828D01*
X196059429Y-182308828D02*
X196059429Y-183594542D01*
X196059429Y-183594542D02*
X196130858Y-183737400D01*
X196130858Y-183737400D02*
X196273715Y-183808828D01*
X196273715Y-183808828D02*
X196416572Y-183808828D01*
X197559430Y-183808828D02*
X197559430Y-183023114D01*
X197559430Y-183023114D02*
X197488001Y-182880257D01*
X197488001Y-182880257D02*
X197345144Y-182808828D01*
X197345144Y-182808828D02*
X197059430Y-182808828D01*
X197059430Y-182808828D02*
X196916572Y-182880257D01*
X197559430Y-183737400D02*
X197416572Y-183808828D01*
X197416572Y-183808828D02*
X197059430Y-183808828D01*
X197059430Y-183808828D02*
X196916572Y-183737400D01*
X196916572Y-183737400D02*
X196845144Y-183594542D01*
X196845144Y-183594542D02*
X196845144Y-183451685D01*
X196845144Y-183451685D02*
X196916572Y-183308828D01*
X196916572Y-183308828D02*
X197059430Y-183237400D01*
X197059430Y-183237400D02*
X197416572Y-183237400D01*
X197416572Y-183237400D02*
X197559430Y-183165971D01*
X198916573Y-182808828D02*
X198916573Y-184023114D01*
X198916573Y-184023114D02*
X198845144Y-184165971D01*
X198845144Y-184165971D02*
X198773715Y-184237400D01*
X198773715Y-184237400D02*
X198630858Y-184308828D01*
X198630858Y-184308828D02*
X198416573Y-184308828D01*
X198416573Y-184308828D02*
X198273715Y-184237400D01*
X198916573Y-183737400D02*
X198773715Y-183808828D01*
X198773715Y-183808828D02*
X198488001Y-183808828D01*
X198488001Y-183808828D02*
X198345144Y-183737400D01*
X198345144Y-183737400D02*
X198273715Y-183665971D01*
X198273715Y-183665971D02*
X198202287Y-183523114D01*
X198202287Y-183523114D02*
X198202287Y-183094542D01*
X198202287Y-183094542D02*
X198273715Y-182951685D01*
X198273715Y-182951685D02*
X198345144Y-182880257D01*
X198345144Y-182880257D02*
X198488001Y-182808828D01*
X198488001Y-182808828D02*
X198773715Y-182808828D01*
X198773715Y-182808828D02*
X198916573Y-182880257D01*
X200202287Y-183737400D02*
X200059430Y-183808828D01*
X200059430Y-183808828D02*
X199773716Y-183808828D01*
X199773716Y-183808828D02*
X199630858Y-183737400D01*
X199630858Y-183737400D02*
X199559430Y-183594542D01*
X199559430Y-183594542D02*
X199559430Y-183023114D01*
X199559430Y-183023114D02*
X199630858Y-182880257D01*
X199630858Y-182880257D02*
X199773716Y-182808828D01*
X199773716Y-182808828D02*
X200059430Y-182808828D01*
X200059430Y-182808828D02*
X200202287Y-182880257D01*
X200202287Y-182880257D02*
X200273716Y-183023114D01*
X200273716Y-183023114D02*
X200273716Y-183165971D01*
X200273716Y-183165971D02*
X199559430Y-183308828D01*
X201988001Y-183737400D02*
X202202287Y-183808828D01*
X202202287Y-183808828D02*
X202559429Y-183808828D01*
X202559429Y-183808828D02*
X202702287Y-183737400D01*
X202702287Y-183737400D02*
X202773715Y-183665971D01*
X202773715Y-183665971D02*
X202845144Y-183523114D01*
X202845144Y-183523114D02*
X202845144Y-183380257D01*
X202845144Y-183380257D02*
X202773715Y-183237400D01*
X202773715Y-183237400D02*
X202702287Y-183165971D01*
X202702287Y-183165971D02*
X202559429Y-183094542D01*
X202559429Y-183094542D02*
X202273715Y-183023114D01*
X202273715Y-183023114D02*
X202130858Y-182951685D01*
X202130858Y-182951685D02*
X202059429Y-182880257D01*
X202059429Y-182880257D02*
X201988001Y-182737400D01*
X201988001Y-182737400D02*
X201988001Y-182594542D01*
X201988001Y-182594542D02*
X202059429Y-182451685D01*
X202059429Y-182451685D02*
X202130858Y-182380257D01*
X202130858Y-182380257D02*
X202273715Y-182308828D01*
X202273715Y-182308828D02*
X202630858Y-182308828D01*
X202630858Y-182308828D02*
X202845144Y-182380257D01*
X203702286Y-183808828D02*
X203559429Y-183737400D01*
X203559429Y-183737400D02*
X203488000Y-183594542D01*
X203488000Y-183594542D02*
X203488000Y-182308828D01*
X204845143Y-183737400D02*
X204702286Y-183808828D01*
X204702286Y-183808828D02*
X204416572Y-183808828D01*
X204416572Y-183808828D02*
X204273714Y-183737400D01*
X204273714Y-183737400D02*
X204202286Y-183594542D01*
X204202286Y-183594542D02*
X204202286Y-183023114D01*
X204202286Y-183023114D02*
X204273714Y-182880257D01*
X204273714Y-182880257D02*
X204416572Y-182808828D01*
X204416572Y-182808828D02*
X204702286Y-182808828D01*
X204702286Y-182808828D02*
X204845143Y-182880257D01*
X204845143Y-182880257D02*
X204916572Y-183023114D01*
X204916572Y-183023114D02*
X204916572Y-183165971D01*
X204916572Y-183165971D02*
X204202286Y-183308828D01*
X206202286Y-183808828D02*
X206202286Y-182308828D01*
X206202286Y-183737400D02*
X206059428Y-183808828D01*
X206059428Y-183808828D02*
X205773714Y-183808828D01*
X205773714Y-183808828D02*
X205630857Y-183737400D01*
X205630857Y-183737400D02*
X205559428Y-183665971D01*
X205559428Y-183665971D02*
X205488000Y-183523114D01*
X205488000Y-183523114D02*
X205488000Y-183094542D01*
X205488000Y-183094542D02*
X205559428Y-182951685D01*
X205559428Y-182951685D02*
X205630857Y-182880257D01*
X205630857Y-182880257D02*
X205773714Y-182808828D01*
X205773714Y-182808828D02*
X206059428Y-182808828D01*
X206059428Y-182808828D02*
X206202286Y-182880257D01*
D12*
%TO.P,R4,1*%
%TO.N,/DRILL_PWM*%
X140040000Y-66652000D03*
%TO.P,R4,2*%
%TO.N,Net-(J9-Pin_1)*%
X142580000Y-66652000D03*
%TD*%
D13*
%TO.P,Q2,1,G*%
%TO.N,/Wheel_Bot_PWM*%
X146880000Y-87131000D03*
D14*
%TO.P,Q2,2,D*%
%TO.N,Net-(D2-A)*%
X144340000Y-87131000D03*
%TO.P,Q2,3,S*%
%TO.N,GND*%
X141800000Y-87131000D03*
%TD*%
D15*
%TO.P,J13,1,Pin_1*%
%TO.N,GND*%
X111420000Y-49801200D03*
D16*
%TO.P,J13,2,Pin_2*%
X111420000Y-47801200D03*
%TO.P,J13,3,Pin_3*%
X111420000Y-45801200D03*
%TO.P,J13,4,Pin_4*%
X111420000Y-43801200D03*
%TD*%
D13*
%TO.P,Q3,1,G*%
%TO.N,/DRILL_PWM*%
X124333000Y-87249000D03*
D14*
%TO.P,Q3,2,D*%
%TO.N,Net-(D3-A)*%
X121793000Y-87249000D03*
%TO.P,Q3,3,S*%
%TO.N,GND*%
X119253000Y-87249000D03*
%TD*%
D13*
%TO.P,Q1,1,G*%
%TO.N,/Wheel_Top_PWM*%
X141800000Y-44942000D03*
D14*
%TO.P,Q1,2,D*%
%TO.N,Net-(D1-A)*%
X144340000Y-44942000D03*
%TO.P,Q1,3,S*%
%TO.N,GND*%
X146880000Y-44942000D03*
%TD*%
D17*
%TO.P,J10,1,Pin_1*%
%TO.N,+5V*%
X147616000Y-109014000D03*
D16*
%TO.P,J10,2,Pin_2*%
%TO.N,Net-(J10-Pin_2)*%
X147616000Y-111014000D03*
%TO.P,J10,3,Pin_3*%
%TO.N,Net-(J10-Pin_3)*%
X147616000Y-113014000D03*
%TO.P,J10,4,Pin_4*%
%TO.N,/SOIL_ENABLE*%
X147616000Y-115014000D03*
%TD*%
D18*
%TO.P,J18,1,Pin_1*%
%TO.N,Net-(D1-A)*%
X147090000Y-34640000D03*
D19*
%TO.P,J18,2,Pin_2*%
%TO.N,+11.1V*%
X142090000Y-34640000D03*
%TO.P,J18,3,Pin_3*%
X137010000Y-34640000D03*
%TO.P,J18,4,Pin_4*%
%TO.N,GND*%
X131930000Y-34640000D03*
%TD*%
D20*
%TO.P,J17,1,Pin_1*%
%TO.N,+11.1V*%
X129356000Y-57641200D03*
D19*
%TO.P,J17,2,Pin_2*%
%TO.N,GND*%
X129356000Y-62641200D03*
%TD*%
D12*
%TO.P,R3,1*%
%TO.N,/Wheel_Bot_PWM*%
X140040000Y-72652000D03*
%TO.P,R3,2*%
%TO.N,Net-(J9-Pin_3)*%
X142580000Y-72652000D03*
%TD*%
D15*
%TO.P,J15,1,Pin_1*%
%TO.N,+8.4V*%
X111420000Y-62501200D03*
D16*
%TO.P,J15,2,Pin_2*%
X111420000Y-60501200D03*
%TO.P,J15,3,Pin_3*%
%TO.N,GND*%
X111420000Y-58501200D03*
%TO.P,J15,4,Pin_4*%
X111420000Y-56501200D03*
%TD*%
D17*
%TO.P,J9,1,Pin_1*%
%TO.N,Net-(J9-Pin_1)*%
X147660000Y-66652000D03*
D16*
%TO.P,J9,2,Pin_2*%
%TO.N,Net-(J9-Pin_2)*%
X147660000Y-68652000D03*
%TO.P,J9,3,Pin_3*%
%TO.N,Net-(J9-Pin_3)*%
X147660000Y-70652000D03*
%TO.P,J9,4,Pin_4*%
%TO.N,GND*%
X147660000Y-72652000D03*
%TD*%
D17*
%TO.P,J8,1,Pin_1*%
%TO.N,Net-(J11-Pin_5)*%
X147660000Y-59752000D03*
D16*
%TO.P,J8,2,Pin_2*%
%TO.N,Net-(J11-Pin_6)*%
X147660000Y-61752000D03*
%TD*%
D21*
%TO.P,J16,1,Pin_1*%
%TO.N,Net-(J11-Pin_2)*%
X145700000Y-54452000D03*
D19*
%TO.P,J16,2,Pin_2*%
%TO.N,Net-(J11-Pin_1)*%
X145700000Y-49452000D03*
%TD*%
D22*
%TO.P,J6,1,Pin_1*%
%TO.N,GND*%
X114584600Y-70200000D03*
D19*
%TO.P,J6,2,Pin_2*%
%TO.N,+8.4V*%
X119584600Y-70200000D03*
%TD*%
D18*
%TO.P,J5,1,Pin_1*%
%TO.N,+8.4V*%
X119584600Y-34640000D03*
D19*
%TO.P,J5,2,Pin_2*%
%TO.N,GND*%
X114584600Y-34640000D03*
%TD*%
D12*
%TO.P,R1,1*%
%TO.N,/Wheel_Top_PWM*%
X140040000Y-69652000D03*
%TO.P,R1,2*%
%TO.N,Net-(J9-Pin_2)*%
X142580000Y-69652000D03*
%TD*%
D17*
%TO.P,J12,1,Pin_1*%
%TO.N,+8.4V*%
X122724000Y-43801200D03*
D16*
%TO.P,J12,2,Pin_2*%
X122724000Y-45801200D03*
%TO.P,J12,3,Pin_3*%
X122724000Y-47801200D03*
%TO.P,J12,4,Pin_4*%
X122724000Y-49801200D03*
%TD*%
D22*
%TO.P,J1,1,Pin_1*%
%TO.N,Net-(D3-A)*%
X121850000Y-97438960D03*
D19*
%TO.P,J1,2,Pin_2*%
%TO.N,+11.1V*%
X126850000Y-97438960D03*
%TO.P,J1,3,Pin_3*%
%TO.N,GND*%
X131930000Y-97438960D03*
%TO.P,J1,4,Pin_4*%
%TO.N,+11.1V*%
X137010000Y-97438960D03*
%TO.P,J1,5,Pin_5*%
X142090000Y-97438960D03*
%TO.P,J1,6,Pin_6*%
%TO.N,Net-(D2-A)*%
X147170000Y-97438960D03*
%TD*%
D23*
%TO.P,J11,1,Pin_1*%
%TO.N,Net-(J11-Pin_1)*%
X139770000Y-48372000D03*
D24*
%TO.P,J11,2,Pin_2*%
%TO.N,Net-(J11-Pin_2)*%
X139770000Y-50912000D03*
%TO.P,J11,3,Pin_3*%
%TO.N,GND*%
X139770000Y-53452000D03*
%TO.P,J11,4,Pin_4*%
%TO.N,+5V*%
X139770000Y-55992000D03*
%TO.P,J11,5,Pin_5*%
%TO.N,Net-(J11-Pin_5)*%
X139770000Y-58532000D03*
%TO.P,J11,6,Pin_6*%
%TO.N,Net-(J11-Pin_6)*%
X139770000Y-61072000D03*
%TD*%
D25*
%TO.P,U1,1,DI*%
%TO.N,Net-(J10-Pin_2)*%
X132080000Y-105791000D03*
%TO.P,U1,2,DE*%
%TO.N,/SOIL_ENABLE*%
X134620000Y-105791000D03*
%TO.P,U1,3,RE*%
X137160000Y-105791000D03*
%TO.P,U1,4,RO*%
%TO.N,Net-(J10-Pin_3)*%
X139700000Y-105791000D03*
%TO.P,U1,5,VCC*%
%TO.N,+5V*%
X139700000Y-147955000D03*
%TO.P,U1,6,B*%
%TO.N,unconnected-(U1-B-Pad6)*%
X137160000Y-147955000D03*
%TO.P,U1,7,A*%
%TO.N,unconnected-(U1-A-Pad7)*%
X134620000Y-147955000D03*
%TO.P,U1,8,GND*%
%TO.N,GND*%
X132080000Y-147955000D03*
%TD*%
D15*
%TO.P,J14,1,Pin_1*%
%TO.N,+11.1V*%
X130216000Y-49801200D03*
D16*
%TO.P,J14,2,Pin_2*%
X130216000Y-47801200D03*
%TO.P,J14,3,Pin_3*%
%TO.N,GND*%
X130216000Y-45801200D03*
%TO.P,J14,4,Pin_4*%
X130216000Y-43801200D03*
%TD*%
D26*
%TO.P,D1,1,K*%
%TO.N,+11.1V*%
X131890000Y-39720000D03*
D27*
%TO.P,D1,2,A*%
%TO.N,Net-(D1-A)*%
X147130000Y-39720000D03*
%TD*%
D28*
%TO.P,C5,1*%
%TO.N,GND*%
X122924000Y-55118000D03*
%TO.P,C5,2*%
%TO.N,+8.4V*%
X121424000Y-55118000D03*
%TD*%
%TO.P,C1,1*%
%TO.N,GND*%
X128298000Y-83820000D03*
%TO.P,C1,2*%
%TO.N,+11.1V*%
X129798000Y-83820000D03*
%TD*%
D29*
%TO.P,D3,1,K*%
%TO.N,+11.1V*%
X128227600Y-92379800D03*
D27*
%TO.P,D3,2,A*%
%TO.N,Net-(D3-A)*%
X112987600Y-92379800D03*
%TD*%
D28*
%TO.P,C6,1*%
%TO.N,GND*%
X122924000Y-62230000D03*
%TO.P,C6,2*%
%TO.N,+8.4V*%
X121424000Y-62230000D03*
%TD*%
%TO.P,C2,1*%
%TO.N,GND*%
X128298000Y-76790000D03*
%TO.P,C2,2*%
%TO.N,+11.1V*%
X129798000Y-76790000D03*
%TD*%
D26*
%TO.P,D2,1,K*%
%TO.N,+11.1V*%
X131927600Y-92379800D03*
D27*
%TO.P,D2,2,A*%
%TO.N,Net-(D2-A)*%
X147167600Y-92379800D03*
%TD*%
D30*
%TO.N,Net-(J10-Pin_2)*%
X142240000Y-108712000D03*
%TO.N,/Wheel_Top_PWM*%
X137922000Y-67564000D03*
%TD*%
D31*
%TO.N,+11.1V*%
X135382000Y-69596000D02*
X135382000Y-71882000D01*
X131927600Y-92354400D02*
X131927600Y-92379800D01*
D32*
X129798000Y-83820000D02*
X135382000Y-78236000D01*
D31*
X135382000Y-62484000D02*
X135382000Y-65024000D01*
D33*
X131875200Y-47801200D02*
X135382000Y-51308000D01*
D31*
X135382000Y-39624000D02*
X135382000Y-47498000D01*
X137010000Y-34640000D02*
X135382000Y-36268000D01*
X128227600Y-92379800D02*
X131927600Y-92379800D01*
X135382000Y-57658000D02*
X135382000Y-62484000D01*
X142090000Y-34640000D02*
X137010000Y-34640000D01*
D34*
X126868440Y-97438960D02*
X131927600Y-92379800D01*
D33*
X130216000Y-47801200D02*
X131875200Y-47801200D01*
D32*
X134706000Y-71882000D02*
X135382000Y-71882000D01*
D31*
X135382000Y-65024000D02*
X135382000Y-69596000D01*
D33*
X130539200Y-57641200D02*
X135382000Y-62484000D01*
D31*
X142090000Y-97438960D02*
X137010000Y-97438960D01*
D33*
X130216000Y-49801200D02*
X130216000Y-52492000D01*
D31*
X135382000Y-71882000D02*
X135382000Y-78236000D01*
D34*
X135382000Y-63667200D02*
X135382000Y-65024000D01*
D33*
X129356000Y-57641200D02*
X130539200Y-57641200D01*
D31*
X135382000Y-47498000D02*
X135382000Y-51308000D01*
X135382000Y-88900000D02*
X131927600Y-92354400D01*
X135382000Y-51308000D02*
X135382000Y-55118000D01*
X131950840Y-92379800D02*
X137010000Y-97438960D01*
D34*
X126850000Y-97438960D02*
X126868440Y-97438960D01*
D31*
X131927600Y-92379800D02*
X131950840Y-92379800D01*
X135382000Y-78236000D02*
X135382000Y-88900000D01*
D32*
X129798000Y-76790000D02*
X134706000Y-71882000D01*
D31*
X135382000Y-36268000D02*
X135382000Y-39624000D01*
D33*
X130216000Y-52492000D02*
X135382000Y-57658000D01*
D31*
X135286000Y-39720000D02*
X135382000Y-39624000D01*
X135382000Y-55118000D02*
X135382000Y-57658000D01*
X131890000Y-39720000D02*
X135286000Y-39720000D01*
D32*
%TO.N,+5V*%
X139700000Y-147955000D02*
X139700000Y-116055000D01*
X139700000Y-116055000D02*
X146741000Y-109014000D01*
X146741000Y-109014000D02*
X147616000Y-109014000D01*
D34*
%TO.N,+8.4V*%
X122724000Y-45801200D02*
X119552800Y-45801200D01*
X117094000Y-57912000D02*
X117094000Y-65024000D01*
D32*
X116628200Y-67709400D02*
X117094000Y-67709400D01*
X121424000Y-55118000D02*
X119888000Y-55118000D01*
D34*
X119584600Y-40181400D02*
X117094000Y-42672000D01*
D32*
X119888000Y-55118000D02*
X117094000Y-57912000D01*
D34*
X122724000Y-43801200D02*
X118223200Y-43801200D01*
D32*
X112571200Y-60501200D02*
X117094000Y-65024000D01*
X121424000Y-62230000D02*
X119888000Y-62230000D01*
X111420000Y-60501200D02*
X112571200Y-60501200D01*
D34*
X117094000Y-51308000D02*
X117094000Y-57912000D01*
X122724000Y-49801200D02*
X118600800Y-49801200D01*
D32*
X111420000Y-62501200D02*
X116628200Y-67709400D01*
D34*
X118223200Y-43801200D02*
X117094000Y-42672000D01*
X122724000Y-47801200D02*
X120600800Y-47801200D01*
X119584600Y-34640000D02*
X119584600Y-40181400D01*
X117094000Y-42672000D02*
X117094000Y-48260000D01*
X119552800Y-45801200D02*
X117094000Y-48260000D01*
X120600800Y-47801200D02*
X117094000Y-51308000D01*
X118600800Y-49801200D02*
X117094000Y-51308000D01*
X117094000Y-65024000D02*
X117094000Y-67709400D01*
X117094000Y-48260000D02*
X117094000Y-51308000D01*
D32*
X119888000Y-62230000D02*
X117094000Y-65024000D01*
D34*
X117094000Y-67709400D02*
X119584600Y-70200000D01*
D32*
%TO.N,Net-(J11-Pin_6)*%
X146980000Y-61072000D02*
X147660000Y-61752000D01*
X139770000Y-61072000D02*
X146980000Y-61072000D01*
%TO.N,Net-(J11-Pin_5)*%
X146440000Y-58532000D02*
X147660000Y-59752000D01*
X139770000Y-58532000D02*
X146440000Y-58532000D01*
D35*
%TO.N,Net-(J9-Pin_3)*%
X144010000Y-72652000D02*
X146010000Y-70652000D01*
X142580000Y-72652000D02*
X144010000Y-72652000D01*
X146010000Y-70652000D02*
X147660000Y-70652000D01*
%TO.N,Net-(J9-Pin_2)*%
X145470000Y-68652000D02*
X147660000Y-68652000D01*
X142580000Y-69652000D02*
X144470000Y-69652000D01*
X144470000Y-69652000D02*
X145470000Y-68652000D01*
%TO.N,Net-(J9-Pin_1)*%
X142580000Y-66652000D02*
X147660000Y-66652000D01*
%TO.N,Net-(J10-Pin_2)*%
X142240000Y-108712000D02*
X135001000Y-108712000D01*
X135001000Y-108712000D02*
X132080000Y-105791000D01*
D32*
%TO.N,Net-(J11-Pin_2)*%
X145638000Y-54452000D02*
X145700000Y-54452000D01*
D33*
X142098000Y-50912000D02*
X145638000Y-54452000D01*
X139770000Y-50912000D02*
X142098000Y-50912000D01*
%TO.N,Net-(J11-Pin_1)*%
X139770000Y-48372000D02*
X144620000Y-48372000D01*
X144620000Y-48372000D02*
X145700000Y-49452000D01*
D35*
%TO.N,/Wheel_Top_PWM*%
X137922000Y-47818000D02*
X140798000Y-44942000D01*
X140798000Y-44942000D02*
X141800000Y-44942000D01*
X137922000Y-67564000D02*
X137922000Y-47818000D01*
%TO.N,/Wheel_Bot_PWM*%
X140040000Y-80291000D02*
X146880000Y-87131000D01*
X140040000Y-72652000D02*
X140040000Y-80291000D01*
D33*
%TO.N,Net-(D1-A)*%
X147130000Y-39720000D02*
X147130000Y-34680000D01*
D32*
X147130000Y-34680000D02*
X147090000Y-34640000D01*
D33*
X144340000Y-42510000D02*
X147130000Y-39720000D01*
X144340000Y-44942000D02*
X144340000Y-42510000D01*
D32*
%TO.N,Net-(D2-A)*%
X147170000Y-92382200D02*
X147167600Y-92379800D01*
D33*
X147170000Y-97438960D02*
X147170000Y-92382200D01*
X144340000Y-89552200D02*
X144340000Y-87131000D01*
X147167600Y-92379800D02*
X144340000Y-89552200D01*
%TO.N,Net-(D3-A)*%
X112987600Y-92379800D02*
X118948200Y-92379800D01*
X112987600Y-95207600D02*
X112987600Y-92379800D01*
X118948200Y-92379800D02*
X121793000Y-89535000D01*
X115218960Y-97438960D02*
X112987600Y-95207600D01*
X121793000Y-89535000D02*
X121793000Y-87249000D01*
X121850000Y-97438960D02*
X115218960Y-97438960D01*
%TD*%
M02*
