%TF.GenerationSoftware,KiCad,Pcbnew,9.0.5*%
%TF.CreationDate,2026-03-16T21:51:04-07:00*%
%TF.ProjectId,High_Voltage_Sled,48696768-5f56-46f6-9c74-6167655f536c,rev?*%
%TF.SameCoordinates,Original*%
%TF.FileFunction,Soldermask,Bot*%
%TF.FilePolarity,Negative*%
%FSLAX46Y46*%
G04 Gerber Fmt 4.6, Leading zero omitted, Abs format (unit mm)*
G04 Created by KiCad (PCBNEW 9.0.5) date 2026-03-16 21:51:04*
%MOMM*%
%LPD*%
G01*
G04 APERTURE LIST*
G04 Aperture macros list*
%AMRoundRect*
0 Rectangle with rounded corners*
0 $1 Rounding radius*
0 $2 $3 $4 $5 $6 $7 $8 $9 X,Y pos of 4 corners*
0 Add a 4 corners polygon primitive as box body*
4,1,4,$2,$3,$4,$5,$6,$7,$8,$9,$2,$3,0*
0 Add four circle primitives for the rounded corners*
1,1,$1+$1,$2,$3*
1,1,$1+$1,$4,$5*
1,1,$1+$1,$6,$7*
1,1,$1+$1,$8,$9*
0 Add four rect primitives between the rounded corners*
20,1,$1+$1,$2,$3,$4,$5,0*
20,1,$1+$1,$4,$5,$6,$7,0*
20,1,$1+$1,$6,$7,$8,$9,0*
20,1,$1+$1,$8,$9,$2,$3,0*%
G04 Aperture macros list end*
%ADD10C,1.600000*%
%ADD11RoundRect,0.102000X0.925000X0.925000X-0.925000X0.925000X-0.925000X-0.925000X0.925000X-0.925000X0*%
%ADD12C,2.054000*%
%ADD13RoundRect,0.250000X0.625000X-0.350000X0.625000X0.350000X-0.625000X0.350000X-0.625000X-0.350000X0*%
%ADD14O,1.750000X1.200000*%
%ADD15RoundRect,0.102000X-0.925000X-0.925000X0.925000X-0.925000X0.925000X0.925000X-0.925000X0.925000X0*%
%ADD16RoundRect,0.250000X-0.625000X0.350000X-0.625000X-0.350000X0.625000X-0.350000X0.625000X0.350000X0*%
%ADD17RoundRect,0.250000X1.050000X1.050000X-1.050000X1.050000X-1.050000X-1.050000X1.050000X-1.050000X0*%
%ADD18C,2.600000*%
%ADD19RoundRect,0.250000X-1.050000X1.050000X-1.050000X-1.050000X1.050000X-1.050000X1.050000X1.050000X0*%
%ADD20RoundRect,0.250000X1.050000X-1.050000X1.050000X1.050000X-1.050000X1.050000X-1.050000X-1.050000X0*%
%ADD21RoundRect,0.250000X-1.050000X-1.050000X1.050000X-1.050000X1.050000X1.050000X-1.050000X1.050000X0*%
%ADD22R,1.700000X1.700000*%
%ADD23C,1.700000*%
%ADD24C,1.750000*%
%ADD25RoundRect,0.250000X-1.350000X-1.350000X1.350000X-1.350000X1.350000X1.350000X-1.350000X1.350000X0*%
%ADD26C,3.200000*%
%ADD27C,1.200000*%
%ADD28RoundRect,0.250000X1.350000X1.350000X-1.350000X1.350000X-1.350000X-1.350000X1.350000X-1.350000X0*%
G04 APERTURE END LIST*
D10*
%TO.C,R4*%
X140040000Y-66652000D03*
X142580000Y-66652000D03*
%TD*%
D11*
%TO.C,Q2*%
X146880000Y-87131000D03*
D12*
X144340000Y-87131000D03*
X141800000Y-87131000D03*
%TD*%
D13*
%TO.C,J13*%
X111420000Y-49801200D03*
D14*
X111420000Y-47801200D03*
X111420000Y-45801200D03*
X111420000Y-43801200D03*
%TD*%
D11*
%TO.C,Q3*%
X124333000Y-87249000D03*
D12*
X121793000Y-87249000D03*
X119253000Y-87249000D03*
%TD*%
D15*
%TO.C,Q1*%
X141800000Y-44942000D03*
D12*
X144340000Y-44942000D03*
X146880000Y-44942000D03*
%TD*%
D16*
%TO.C,J10*%
X147616000Y-109014000D03*
D14*
X147616000Y-111014000D03*
X147616000Y-113014000D03*
X147616000Y-115014000D03*
%TD*%
D17*
%TO.C,J18*%
X147090000Y-34640000D03*
D18*
X142090000Y-34640000D03*
X137010000Y-34640000D03*
X131930000Y-34640000D03*
%TD*%
D19*
%TO.C,J17*%
X129356000Y-57641200D03*
D18*
X129356000Y-62641200D03*
%TD*%
D10*
%TO.C,R3*%
X140040000Y-72652000D03*
X142580000Y-72652000D03*
%TD*%
D13*
%TO.C,J15*%
X111420000Y-62501200D03*
D14*
X111420000Y-60501200D03*
X111420000Y-58501200D03*
X111420000Y-56501200D03*
%TD*%
D16*
%TO.C,J9*%
X147660000Y-66652000D03*
D14*
X147660000Y-68652000D03*
X147660000Y-70652000D03*
X147660000Y-72652000D03*
%TD*%
D16*
%TO.C,J8*%
X147660000Y-59752000D03*
D14*
X147660000Y-61752000D03*
%TD*%
D20*
%TO.C,J16*%
X145700000Y-54452000D03*
D18*
X145700000Y-49452000D03*
%TD*%
D21*
%TO.C,J6*%
X114584600Y-70200000D03*
D18*
X119584600Y-70200000D03*
%TD*%
D17*
%TO.C,J5*%
X119584600Y-34640000D03*
D18*
X114584600Y-34640000D03*
%TD*%
D10*
%TO.C,R1*%
X140040000Y-69652000D03*
X142580000Y-69652000D03*
%TD*%
D16*
%TO.C,J12*%
X122724000Y-43801200D03*
D14*
X122724000Y-45801200D03*
X122724000Y-47801200D03*
X122724000Y-49801200D03*
%TD*%
D21*
%TO.C,J1*%
X121850000Y-97438960D03*
D18*
X126850000Y-97438960D03*
X131930000Y-97438960D03*
X137010000Y-97438960D03*
X142090000Y-97438960D03*
X147170000Y-97438960D03*
%TD*%
D22*
%TO.C,J11*%
X139770000Y-48372000D03*
D23*
X139770000Y-50912000D03*
X139770000Y-53452000D03*
X139770000Y-55992000D03*
X139770000Y-58532000D03*
X139770000Y-61072000D03*
%TD*%
D24*
%TO.C,U1*%
X132080000Y-105791000D03*
X134620000Y-105791000D03*
X137160000Y-105791000D03*
X139700000Y-105791000D03*
X139700000Y-147955000D03*
X137160000Y-147955000D03*
X134620000Y-147955000D03*
X132080000Y-147955000D03*
%TD*%
D13*
%TO.C,J14*%
X130216000Y-49801200D03*
D14*
X130216000Y-47801200D03*
X130216000Y-45801200D03*
X130216000Y-43801200D03*
%TD*%
D25*
%TO.C,D1*%
X131890000Y-39720000D03*
D26*
X147130000Y-39720000D03*
%TD*%
D27*
%TO.C,C5*%
X122924000Y-55118000D03*
X121424000Y-55118000D03*
%TD*%
%TO.C,C1*%
X128298000Y-83820000D03*
X129798000Y-83820000D03*
%TD*%
D28*
%TO.C,D3*%
X128227600Y-92379800D03*
D26*
X112987600Y-92379800D03*
%TD*%
D27*
%TO.C,C6*%
X122924000Y-62230000D03*
X121424000Y-62230000D03*
%TD*%
%TO.C,C2*%
X128298000Y-76790000D03*
X129798000Y-76790000D03*
%TD*%
D25*
%TO.C,D2*%
X131927600Y-92379800D03*
D26*
X147167600Y-92379800D03*
%TD*%
M02*
