%TF.GenerationSoftware,KiCad,Pcbnew,9.0.5*%
%TF.CreationDate,2026-03-16T21:51:04-07:00*%
%TF.ProjectId,High_Voltage_Sled,48696768-5f56-46f6-9c74-6167655f536c,rev?*%
%TF.SameCoordinates,Original*%
%TF.FileFunction,Legend,Top*%
%TF.FilePolarity,Positive*%
%FSLAX46Y46*%
G04 Gerber Fmt 4.6, Leading zero omitted, Abs format (unit mm)*
G04 Created by KiCad (PCBNEW 9.0.5) date 2026-03-16 21:51:04*
%MOMM*%
%LPD*%
G01*
G04 APERTURE LIST*
%ADD10C,0.150000*%
%ADD11C,0.100000*%
%ADD12C,0.120000*%
%ADD13C,0.127000*%
%ADD14C,0.200000*%
G04 APERTURE END LIST*
D10*
X141143333Y-64736819D02*
X140810000Y-64260628D01*
X140571905Y-64736819D02*
X140571905Y-63736819D01*
X140571905Y-63736819D02*
X140952857Y-63736819D01*
X140952857Y-63736819D02*
X141048095Y-63784438D01*
X141048095Y-63784438D02*
X141095714Y-63832057D01*
X141095714Y-63832057D02*
X141143333Y-63927295D01*
X141143333Y-63927295D02*
X141143333Y-64070152D01*
X141143333Y-64070152D02*
X141095714Y-64165390D01*
X141095714Y-64165390D02*
X141048095Y-64213009D01*
X141048095Y-64213009D02*
X140952857Y-64260628D01*
X140952857Y-64260628D02*
X140571905Y-64260628D01*
X142000476Y-64070152D02*
X142000476Y-64736819D01*
X141762381Y-63689200D02*
X141524286Y-64403485D01*
X141524286Y-64403485D02*
X142143333Y-64403485D01*
X141382761Y-89958057D02*
X141287523Y-89910438D01*
X141287523Y-89910438D02*
X141192285Y-89815200D01*
X141192285Y-89815200D02*
X141049428Y-89672342D01*
X141049428Y-89672342D02*
X140954190Y-89624723D01*
X140954190Y-89624723D02*
X140858952Y-89624723D01*
X140906571Y-89862819D02*
X140811333Y-89815200D01*
X140811333Y-89815200D02*
X140716095Y-89719961D01*
X140716095Y-89719961D02*
X140668476Y-89529485D01*
X140668476Y-89529485D02*
X140668476Y-89196152D01*
X140668476Y-89196152D02*
X140716095Y-89005676D01*
X140716095Y-89005676D02*
X140811333Y-88910438D01*
X140811333Y-88910438D02*
X140906571Y-88862819D01*
X140906571Y-88862819D02*
X141097047Y-88862819D01*
X141097047Y-88862819D02*
X141192285Y-88910438D01*
X141192285Y-88910438D02*
X141287523Y-89005676D01*
X141287523Y-89005676D02*
X141335142Y-89196152D01*
X141335142Y-89196152D02*
X141335142Y-89529485D01*
X141335142Y-89529485D02*
X141287523Y-89719961D01*
X141287523Y-89719961D02*
X141192285Y-89815200D01*
X141192285Y-89815200D02*
X141097047Y-89862819D01*
X141097047Y-89862819D02*
X140906571Y-89862819D01*
X141716095Y-88958057D02*
X141763714Y-88910438D01*
X141763714Y-88910438D02*
X141858952Y-88862819D01*
X141858952Y-88862819D02*
X142097047Y-88862819D01*
X142097047Y-88862819D02*
X142192285Y-88910438D01*
X142192285Y-88910438D02*
X142239904Y-88958057D01*
X142239904Y-88958057D02*
X142287523Y-89053295D01*
X142287523Y-89053295D02*
X142287523Y-89148533D01*
X142287523Y-89148533D02*
X142239904Y-89291390D01*
X142239904Y-89291390D02*
X141668476Y-89862819D01*
X141668476Y-89862819D02*
X142287523Y-89862819D01*
X107974819Y-47610723D02*
X108689104Y-47610723D01*
X108689104Y-47610723D02*
X108831961Y-47658342D01*
X108831961Y-47658342D02*
X108927200Y-47753580D01*
X108927200Y-47753580D02*
X108974819Y-47896437D01*
X108974819Y-47896437D02*
X108974819Y-47991675D01*
X108974819Y-46610723D02*
X108974819Y-47182151D01*
X108974819Y-46896437D02*
X107974819Y-46896437D01*
X107974819Y-46896437D02*
X108117676Y-46991675D01*
X108117676Y-46991675D02*
X108212914Y-47086913D01*
X108212914Y-47086913D02*
X108260533Y-47182151D01*
X107974819Y-46277389D02*
X107974819Y-45658342D01*
X107974819Y-45658342D02*
X108355771Y-45991675D01*
X108355771Y-45991675D02*
X108355771Y-45848818D01*
X108355771Y-45848818D02*
X108403390Y-45753580D01*
X108403390Y-45753580D02*
X108451009Y-45705961D01*
X108451009Y-45705961D02*
X108546247Y-45658342D01*
X108546247Y-45658342D02*
X108784342Y-45658342D01*
X108784342Y-45658342D02*
X108879580Y-45705961D01*
X108879580Y-45705961D02*
X108927200Y-45753580D01*
X108927200Y-45753580D02*
X108974819Y-45848818D01*
X108974819Y-45848818D02*
X108974819Y-46134532D01*
X108974819Y-46134532D02*
X108927200Y-46229770D01*
X108927200Y-46229770D02*
X108879580Y-46277389D01*
X123742761Y-92074057D02*
X123647523Y-92026438D01*
X123647523Y-92026438D02*
X123552285Y-91931200D01*
X123552285Y-91931200D02*
X123409428Y-91788342D01*
X123409428Y-91788342D02*
X123314190Y-91740723D01*
X123314190Y-91740723D02*
X123218952Y-91740723D01*
X123266571Y-91978819D02*
X123171333Y-91931200D01*
X123171333Y-91931200D02*
X123076095Y-91835961D01*
X123076095Y-91835961D02*
X123028476Y-91645485D01*
X123028476Y-91645485D02*
X123028476Y-91312152D01*
X123028476Y-91312152D02*
X123076095Y-91121676D01*
X123076095Y-91121676D02*
X123171333Y-91026438D01*
X123171333Y-91026438D02*
X123266571Y-90978819D01*
X123266571Y-90978819D02*
X123457047Y-90978819D01*
X123457047Y-90978819D02*
X123552285Y-91026438D01*
X123552285Y-91026438D02*
X123647523Y-91121676D01*
X123647523Y-91121676D02*
X123695142Y-91312152D01*
X123695142Y-91312152D02*
X123695142Y-91645485D01*
X123695142Y-91645485D02*
X123647523Y-91835961D01*
X123647523Y-91835961D02*
X123552285Y-91931200D01*
X123552285Y-91931200D02*
X123457047Y-91978819D01*
X123457047Y-91978819D02*
X123266571Y-91978819D01*
X124028476Y-90978819D02*
X124647523Y-90978819D01*
X124647523Y-90978819D02*
X124314190Y-91359771D01*
X124314190Y-91359771D02*
X124457047Y-91359771D01*
X124457047Y-91359771D02*
X124552285Y-91407390D01*
X124552285Y-91407390D02*
X124599904Y-91455009D01*
X124599904Y-91455009D02*
X124647523Y-91550247D01*
X124647523Y-91550247D02*
X124647523Y-91788342D01*
X124647523Y-91788342D02*
X124599904Y-91883580D01*
X124599904Y-91883580D02*
X124552285Y-91931200D01*
X124552285Y-91931200D02*
X124457047Y-91978819D01*
X124457047Y-91978819D02*
X124171333Y-91978819D01*
X124171333Y-91978819D02*
X124076095Y-91931200D01*
X124076095Y-91931200D02*
X124028476Y-91883580D01*
X142199761Y-41217057D02*
X142104523Y-41169438D01*
X142104523Y-41169438D02*
X142009285Y-41074200D01*
X142009285Y-41074200D02*
X141866428Y-40931342D01*
X141866428Y-40931342D02*
X141771190Y-40883723D01*
X141771190Y-40883723D02*
X141675952Y-40883723D01*
X141723571Y-41121819D02*
X141628333Y-41074200D01*
X141628333Y-41074200D02*
X141533095Y-40978961D01*
X141533095Y-40978961D02*
X141485476Y-40788485D01*
X141485476Y-40788485D02*
X141485476Y-40455152D01*
X141485476Y-40455152D02*
X141533095Y-40264676D01*
X141533095Y-40264676D02*
X141628333Y-40169438D01*
X141628333Y-40169438D02*
X141723571Y-40121819D01*
X141723571Y-40121819D02*
X141914047Y-40121819D01*
X141914047Y-40121819D02*
X142009285Y-40169438D01*
X142009285Y-40169438D02*
X142104523Y-40264676D01*
X142104523Y-40264676D02*
X142152142Y-40455152D01*
X142152142Y-40455152D02*
X142152142Y-40788485D01*
X142152142Y-40788485D02*
X142104523Y-40978961D01*
X142104523Y-40978961D02*
X142009285Y-41074200D01*
X142009285Y-41074200D02*
X141914047Y-41121819D01*
X141914047Y-41121819D02*
X141723571Y-41121819D01*
X143104523Y-41121819D02*
X142533095Y-41121819D01*
X142818809Y-41121819D02*
X142818809Y-40121819D01*
X142818809Y-40121819D02*
X142723571Y-40264676D01*
X142723571Y-40264676D02*
X142628333Y-40359914D01*
X142628333Y-40359914D02*
X142533095Y-40407533D01*
X149970819Y-112823523D02*
X150685104Y-112823523D01*
X150685104Y-112823523D02*
X150827961Y-112871142D01*
X150827961Y-112871142D02*
X150923200Y-112966380D01*
X150923200Y-112966380D02*
X150970819Y-113109237D01*
X150970819Y-113109237D02*
X150970819Y-113204475D01*
X150970819Y-111823523D02*
X150970819Y-112394951D01*
X150970819Y-112109237D02*
X149970819Y-112109237D01*
X149970819Y-112109237D02*
X150113676Y-112204475D01*
X150113676Y-112204475D02*
X150208914Y-112299713D01*
X150208914Y-112299713D02*
X150256533Y-112394951D01*
X149970819Y-111204475D02*
X149970819Y-111109237D01*
X149970819Y-111109237D02*
X150018438Y-111013999D01*
X150018438Y-111013999D02*
X150066057Y-110966380D01*
X150066057Y-110966380D02*
X150161295Y-110918761D01*
X150161295Y-110918761D02*
X150351771Y-110871142D01*
X150351771Y-110871142D02*
X150589866Y-110871142D01*
X150589866Y-110871142D02*
X150780342Y-110918761D01*
X150780342Y-110918761D02*
X150875580Y-110966380D01*
X150875580Y-110966380D02*
X150923200Y-111013999D01*
X150923200Y-111013999D02*
X150970819Y-111109237D01*
X150970819Y-111109237D02*
X150970819Y-111204475D01*
X150970819Y-111204475D02*
X150923200Y-111299713D01*
X150923200Y-111299713D02*
X150875580Y-111347332D01*
X150875580Y-111347332D02*
X150780342Y-111394951D01*
X150780342Y-111394951D02*
X150589866Y-111442570D01*
X150589866Y-111442570D02*
X150351771Y-111442570D01*
X150351771Y-111442570D02*
X150161295Y-111394951D01*
X150161295Y-111394951D02*
X150066057Y-111347332D01*
X150066057Y-111347332D02*
X150018438Y-111299713D01*
X150018438Y-111299713D02*
X149970819Y-111204475D01*
X136858476Y-40348819D02*
X136858476Y-41063104D01*
X136858476Y-41063104D02*
X136810857Y-41205961D01*
X136810857Y-41205961D02*
X136715619Y-41301200D01*
X136715619Y-41301200D02*
X136572762Y-41348819D01*
X136572762Y-41348819D02*
X136477524Y-41348819D01*
X137858476Y-41348819D02*
X137287048Y-41348819D01*
X137572762Y-41348819D02*
X137572762Y-40348819D01*
X137572762Y-40348819D02*
X137477524Y-40491676D01*
X137477524Y-40491676D02*
X137382286Y-40586914D01*
X137382286Y-40586914D02*
X137287048Y-40634533D01*
X138429905Y-40777390D02*
X138334667Y-40729771D01*
X138334667Y-40729771D02*
X138287048Y-40682152D01*
X138287048Y-40682152D02*
X138239429Y-40586914D01*
X138239429Y-40586914D02*
X138239429Y-40539295D01*
X138239429Y-40539295D02*
X138287048Y-40444057D01*
X138287048Y-40444057D02*
X138334667Y-40396438D01*
X138334667Y-40396438D02*
X138429905Y-40348819D01*
X138429905Y-40348819D02*
X138620381Y-40348819D01*
X138620381Y-40348819D02*
X138715619Y-40396438D01*
X138715619Y-40396438D02*
X138763238Y-40444057D01*
X138763238Y-40444057D02*
X138810857Y-40539295D01*
X138810857Y-40539295D02*
X138810857Y-40586914D01*
X138810857Y-40586914D02*
X138763238Y-40682152D01*
X138763238Y-40682152D02*
X138715619Y-40729771D01*
X138715619Y-40729771D02*
X138620381Y-40777390D01*
X138620381Y-40777390D02*
X138429905Y-40777390D01*
X138429905Y-40777390D02*
X138334667Y-40825009D01*
X138334667Y-40825009D02*
X138287048Y-40872628D01*
X138287048Y-40872628D02*
X138239429Y-40967866D01*
X138239429Y-40967866D02*
X138239429Y-41158342D01*
X138239429Y-41158342D02*
X138287048Y-41253580D01*
X138287048Y-41253580D02*
X138334667Y-41301200D01*
X138334667Y-41301200D02*
X138429905Y-41348819D01*
X138429905Y-41348819D02*
X138620381Y-41348819D01*
X138620381Y-41348819D02*
X138715619Y-41301200D01*
X138715619Y-41301200D02*
X138763238Y-41253580D01*
X138763238Y-41253580D02*
X138810857Y-41158342D01*
X138810857Y-41158342D02*
X138810857Y-40967866D01*
X138810857Y-40967866D02*
X138763238Y-40872628D01*
X138763238Y-40872628D02*
X138715619Y-40825009D01*
X138715619Y-40825009D02*
X138620381Y-40777390D01*
X135620819Y-60850723D02*
X136335104Y-60850723D01*
X136335104Y-60850723D02*
X136477961Y-60898342D01*
X136477961Y-60898342D02*
X136573200Y-60993580D01*
X136573200Y-60993580D02*
X136620819Y-61136437D01*
X136620819Y-61136437D02*
X136620819Y-61231675D01*
X136620819Y-59850723D02*
X136620819Y-60422151D01*
X136620819Y-60136437D02*
X135620819Y-60136437D01*
X135620819Y-60136437D02*
X135763676Y-60231675D01*
X135763676Y-60231675D02*
X135858914Y-60326913D01*
X135858914Y-60326913D02*
X135906533Y-60422151D01*
X135620819Y-59517389D02*
X135620819Y-58850723D01*
X135620819Y-58850723D02*
X136620819Y-59279294D01*
X137247333Y-70304819D02*
X136914000Y-69828628D01*
X136675905Y-70304819D02*
X136675905Y-69304819D01*
X136675905Y-69304819D02*
X137056857Y-69304819D01*
X137056857Y-69304819D02*
X137152095Y-69352438D01*
X137152095Y-69352438D02*
X137199714Y-69400057D01*
X137199714Y-69400057D02*
X137247333Y-69495295D01*
X137247333Y-69495295D02*
X137247333Y-69638152D01*
X137247333Y-69638152D02*
X137199714Y-69733390D01*
X137199714Y-69733390D02*
X137152095Y-69781009D01*
X137152095Y-69781009D02*
X137056857Y-69828628D01*
X137056857Y-69828628D02*
X136675905Y-69828628D01*
X137580667Y-69304819D02*
X138199714Y-69304819D01*
X138199714Y-69304819D02*
X137866381Y-69685771D01*
X137866381Y-69685771D02*
X138009238Y-69685771D01*
X138009238Y-69685771D02*
X138104476Y-69733390D01*
X138104476Y-69733390D02*
X138152095Y-69781009D01*
X138152095Y-69781009D02*
X138199714Y-69876247D01*
X138199714Y-69876247D02*
X138199714Y-70114342D01*
X138199714Y-70114342D02*
X138152095Y-70209580D01*
X138152095Y-70209580D02*
X138104476Y-70257200D01*
X138104476Y-70257200D02*
X138009238Y-70304819D01*
X138009238Y-70304819D02*
X137723524Y-70304819D01*
X137723524Y-70304819D02*
X137628286Y-70257200D01*
X137628286Y-70257200D02*
X137580667Y-70209580D01*
X107974819Y-60310723D02*
X108689104Y-60310723D01*
X108689104Y-60310723D02*
X108831961Y-60358342D01*
X108831961Y-60358342D02*
X108927200Y-60453580D01*
X108927200Y-60453580D02*
X108974819Y-60596437D01*
X108974819Y-60596437D02*
X108974819Y-60691675D01*
X108974819Y-59310723D02*
X108974819Y-59882151D01*
X108974819Y-59596437D02*
X107974819Y-59596437D01*
X107974819Y-59596437D02*
X108117676Y-59691675D01*
X108117676Y-59691675D02*
X108212914Y-59786913D01*
X108212914Y-59786913D02*
X108260533Y-59882151D01*
X107974819Y-58405961D02*
X107974819Y-58882151D01*
X107974819Y-58882151D02*
X108451009Y-58929770D01*
X108451009Y-58929770D02*
X108403390Y-58882151D01*
X108403390Y-58882151D02*
X108355771Y-58786913D01*
X108355771Y-58786913D02*
X108355771Y-58548818D01*
X108355771Y-58548818D02*
X108403390Y-58453580D01*
X108403390Y-58453580D02*
X108451009Y-58405961D01*
X108451009Y-58405961D02*
X108546247Y-58358342D01*
X108546247Y-58358342D02*
X108784342Y-58358342D01*
X108784342Y-58358342D02*
X108879580Y-58405961D01*
X108879580Y-58405961D02*
X108927200Y-58453580D01*
X108927200Y-58453580D02*
X108974819Y-58548818D01*
X108974819Y-58548818D02*
X108974819Y-58786913D01*
X108974819Y-58786913D02*
X108927200Y-58882151D01*
X108927200Y-58882151D02*
X108879580Y-58929770D01*
X150014819Y-69985333D02*
X150729104Y-69985333D01*
X150729104Y-69985333D02*
X150871961Y-70032952D01*
X150871961Y-70032952D02*
X150967200Y-70128190D01*
X150967200Y-70128190D02*
X151014819Y-70271047D01*
X151014819Y-70271047D02*
X151014819Y-70366285D01*
X151014819Y-69461523D02*
X151014819Y-69271047D01*
X151014819Y-69271047D02*
X150967200Y-69175809D01*
X150967200Y-69175809D02*
X150919580Y-69128190D01*
X150919580Y-69128190D02*
X150776723Y-69032952D01*
X150776723Y-69032952D02*
X150586247Y-68985333D01*
X150586247Y-68985333D02*
X150205295Y-68985333D01*
X150205295Y-68985333D02*
X150110057Y-69032952D01*
X150110057Y-69032952D02*
X150062438Y-69080571D01*
X150062438Y-69080571D02*
X150014819Y-69175809D01*
X150014819Y-69175809D02*
X150014819Y-69366285D01*
X150014819Y-69366285D02*
X150062438Y-69461523D01*
X150062438Y-69461523D02*
X150110057Y-69509142D01*
X150110057Y-69509142D02*
X150205295Y-69556761D01*
X150205295Y-69556761D02*
X150443390Y-69556761D01*
X150443390Y-69556761D02*
X150538628Y-69509142D01*
X150538628Y-69509142D02*
X150586247Y-69461523D01*
X150586247Y-69461523D02*
X150633866Y-69366285D01*
X150633866Y-69366285D02*
X150633866Y-69175809D01*
X150633866Y-69175809D02*
X150586247Y-69080571D01*
X150586247Y-69080571D02*
X150538628Y-69032952D01*
X150538628Y-69032952D02*
X150443390Y-68985333D01*
X150014819Y-61085333D02*
X150729104Y-61085333D01*
X150729104Y-61085333D02*
X150871961Y-61132952D01*
X150871961Y-61132952D02*
X150967200Y-61228190D01*
X150967200Y-61228190D02*
X151014819Y-61371047D01*
X151014819Y-61371047D02*
X151014819Y-61466285D01*
X150443390Y-60466285D02*
X150395771Y-60561523D01*
X150395771Y-60561523D02*
X150348152Y-60609142D01*
X150348152Y-60609142D02*
X150252914Y-60656761D01*
X150252914Y-60656761D02*
X150205295Y-60656761D01*
X150205295Y-60656761D02*
X150110057Y-60609142D01*
X150110057Y-60609142D02*
X150062438Y-60561523D01*
X150062438Y-60561523D02*
X150014819Y-60466285D01*
X150014819Y-60466285D02*
X150014819Y-60275809D01*
X150014819Y-60275809D02*
X150062438Y-60180571D01*
X150062438Y-60180571D02*
X150110057Y-60132952D01*
X150110057Y-60132952D02*
X150205295Y-60085333D01*
X150205295Y-60085333D02*
X150252914Y-60085333D01*
X150252914Y-60085333D02*
X150348152Y-60132952D01*
X150348152Y-60132952D02*
X150395771Y-60180571D01*
X150395771Y-60180571D02*
X150443390Y-60275809D01*
X150443390Y-60275809D02*
X150443390Y-60466285D01*
X150443390Y-60466285D02*
X150491009Y-60561523D01*
X150491009Y-60561523D02*
X150538628Y-60609142D01*
X150538628Y-60609142D02*
X150633866Y-60656761D01*
X150633866Y-60656761D02*
X150824342Y-60656761D01*
X150824342Y-60656761D02*
X150919580Y-60609142D01*
X150919580Y-60609142D02*
X150967200Y-60561523D01*
X150967200Y-60561523D02*
X151014819Y-60466285D01*
X151014819Y-60466285D02*
X151014819Y-60275809D01*
X151014819Y-60275809D02*
X150967200Y-60180571D01*
X150967200Y-60180571D02*
X150919580Y-60132952D01*
X150919580Y-60132952D02*
X150824342Y-60085333D01*
X150824342Y-60085333D02*
X150633866Y-60085333D01*
X150633866Y-60085333D02*
X150538628Y-60132952D01*
X150538628Y-60132952D02*
X150491009Y-60180571D01*
X150491009Y-60180571D02*
X150443390Y-60275809D01*
X142710819Y-52625523D02*
X143425104Y-52625523D01*
X143425104Y-52625523D02*
X143567961Y-52673142D01*
X143567961Y-52673142D02*
X143663200Y-52768380D01*
X143663200Y-52768380D02*
X143710819Y-52911237D01*
X143710819Y-52911237D02*
X143710819Y-53006475D01*
X143710819Y-51625523D02*
X143710819Y-52196951D01*
X143710819Y-51911237D02*
X142710819Y-51911237D01*
X142710819Y-51911237D02*
X142853676Y-52006475D01*
X142853676Y-52006475D02*
X142948914Y-52101713D01*
X142948914Y-52101713D02*
X142996533Y-52196951D01*
X142710819Y-50768380D02*
X142710819Y-50958856D01*
X142710819Y-50958856D02*
X142758438Y-51054094D01*
X142758438Y-51054094D02*
X142806057Y-51101713D01*
X142806057Y-51101713D02*
X142948914Y-51196951D01*
X142948914Y-51196951D02*
X143139390Y-51244570D01*
X143139390Y-51244570D02*
X143520342Y-51244570D01*
X143520342Y-51244570D02*
X143615580Y-51196951D01*
X143615580Y-51196951D02*
X143663200Y-51149332D01*
X143663200Y-51149332D02*
X143710819Y-51054094D01*
X143710819Y-51054094D02*
X143710819Y-50863618D01*
X143710819Y-50863618D02*
X143663200Y-50768380D01*
X143663200Y-50768380D02*
X143615580Y-50720761D01*
X143615580Y-50720761D02*
X143520342Y-50673142D01*
X143520342Y-50673142D02*
X143282247Y-50673142D01*
X143282247Y-50673142D02*
X143187009Y-50720761D01*
X143187009Y-50720761D02*
X143139390Y-50768380D01*
X143139390Y-50768380D02*
X143091771Y-50863618D01*
X143091771Y-50863618D02*
X143091771Y-51054094D01*
X143091771Y-51054094D02*
X143139390Y-51149332D01*
X143139390Y-51149332D02*
X143187009Y-51196951D01*
X143187009Y-51196951D02*
X143282247Y-51244570D01*
X116651266Y-62844819D02*
X116651266Y-63559104D01*
X116651266Y-63559104D02*
X116603647Y-63701961D01*
X116603647Y-63701961D02*
X116508409Y-63797200D01*
X116508409Y-63797200D02*
X116365552Y-63844819D01*
X116365552Y-63844819D02*
X116270314Y-63844819D01*
X117556028Y-62844819D02*
X117365552Y-62844819D01*
X117365552Y-62844819D02*
X117270314Y-62892438D01*
X117270314Y-62892438D02*
X117222695Y-62940057D01*
X117222695Y-62940057D02*
X117127457Y-63082914D01*
X117127457Y-63082914D02*
X117079838Y-63273390D01*
X117079838Y-63273390D02*
X117079838Y-63654342D01*
X117079838Y-63654342D02*
X117127457Y-63749580D01*
X117127457Y-63749580D02*
X117175076Y-63797200D01*
X117175076Y-63797200D02*
X117270314Y-63844819D01*
X117270314Y-63844819D02*
X117460790Y-63844819D01*
X117460790Y-63844819D02*
X117556028Y-63797200D01*
X117556028Y-63797200D02*
X117603647Y-63749580D01*
X117603647Y-63749580D02*
X117651266Y-63654342D01*
X117651266Y-63654342D02*
X117651266Y-63416247D01*
X117651266Y-63416247D02*
X117603647Y-63321009D01*
X117603647Y-63321009D02*
X117556028Y-63273390D01*
X117556028Y-63273390D02*
X117460790Y-63225771D01*
X117460790Y-63225771D02*
X117270314Y-63225771D01*
X117270314Y-63225771D02*
X117175076Y-63273390D01*
X117175076Y-63273390D02*
X117127457Y-63321009D01*
X117127457Y-63321009D02*
X117079838Y-63416247D01*
X116851266Y-40904819D02*
X116851266Y-41619104D01*
X116851266Y-41619104D02*
X116803647Y-41761961D01*
X116803647Y-41761961D02*
X116708409Y-41857200D01*
X116708409Y-41857200D02*
X116565552Y-41904819D01*
X116565552Y-41904819D02*
X116470314Y-41904819D01*
X117803647Y-40904819D02*
X117327457Y-40904819D01*
X117327457Y-40904819D02*
X117279838Y-41381009D01*
X117279838Y-41381009D02*
X117327457Y-41333390D01*
X117327457Y-41333390D02*
X117422695Y-41285771D01*
X117422695Y-41285771D02*
X117660790Y-41285771D01*
X117660790Y-41285771D02*
X117756028Y-41333390D01*
X117756028Y-41333390D02*
X117803647Y-41381009D01*
X117803647Y-41381009D02*
X117851266Y-41476247D01*
X117851266Y-41476247D02*
X117851266Y-41714342D01*
X117851266Y-41714342D02*
X117803647Y-41809580D01*
X117803647Y-41809580D02*
X117756028Y-41857200D01*
X117756028Y-41857200D02*
X117660790Y-41904819D01*
X117660790Y-41904819D02*
X117422695Y-41904819D01*
X117422695Y-41904819D02*
X117327457Y-41857200D01*
X117327457Y-41857200D02*
X117279838Y-41809580D01*
X137247333Y-67106819D02*
X136914000Y-66630628D01*
X136675905Y-67106819D02*
X136675905Y-66106819D01*
X136675905Y-66106819D02*
X137056857Y-66106819D01*
X137056857Y-66106819D02*
X137152095Y-66154438D01*
X137152095Y-66154438D02*
X137199714Y-66202057D01*
X137199714Y-66202057D02*
X137247333Y-66297295D01*
X137247333Y-66297295D02*
X137247333Y-66440152D01*
X137247333Y-66440152D02*
X137199714Y-66535390D01*
X137199714Y-66535390D02*
X137152095Y-66583009D01*
X137152095Y-66583009D02*
X137056857Y-66630628D01*
X137056857Y-66630628D02*
X136675905Y-66630628D01*
X138199714Y-67106819D02*
X137628286Y-67106819D01*
X137914000Y-67106819D02*
X137914000Y-66106819D01*
X137914000Y-66106819D02*
X137818762Y-66249676D01*
X137818762Y-66249676D02*
X137723524Y-66344914D01*
X137723524Y-66344914D02*
X137628286Y-66392533D01*
X125078819Y-47610723D02*
X125793104Y-47610723D01*
X125793104Y-47610723D02*
X125935961Y-47658342D01*
X125935961Y-47658342D02*
X126031200Y-47753580D01*
X126031200Y-47753580D02*
X126078819Y-47896437D01*
X126078819Y-47896437D02*
X126078819Y-47991675D01*
X126078819Y-46610723D02*
X126078819Y-47182151D01*
X126078819Y-46896437D02*
X125078819Y-46896437D01*
X125078819Y-46896437D02*
X125221676Y-46991675D01*
X125221676Y-46991675D02*
X125316914Y-47086913D01*
X125316914Y-47086913D02*
X125364533Y-47182151D01*
X125174057Y-46229770D02*
X125126438Y-46182151D01*
X125126438Y-46182151D02*
X125078819Y-46086913D01*
X125078819Y-46086913D02*
X125078819Y-45848818D01*
X125078819Y-45848818D02*
X125126438Y-45753580D01*
X125126438Y-45753580D02*
X125174057Y-45705961D01*
X125174057Y-45705961D02*
X125269295Y-45658342D01*
X125269295Y-45658342D02*
X125364533Y-45658342D01*
X125364533Y-45658342D02*
X125507390Y-45705961D01*
X125507390Y-45705961D02*
X126078819Y-46277389D01*
X126078819Y-46277389D02*
X126078819Y-45658342D01*
X134076666Y-90083779D02*
X134076666Y-90798064D01*
X134076666Y-90798064D02*
X134029047Y-90940921D01*
X134029047Y-90940921D02*
X133933809Y-91036160D01*
X133933809Y-91036160D02*
X133790952Y-91083779D01*
X133790952Y-91083779D02*
X133695714Y-91083779D01*
X135076666Y-91083779D02*
X134505238Y-91083779D01*
X134790952Y-91083779D02*
X134790952Y-90083779D01*
X134790952Y-90083779D02*
X134695714Y-90226636D01*
X134695714Y-90226636D02*
X134600476Y-90321874D01*
X134600476Y-90321874D02*
X134505238Y-90369493D01*
X136096476Y-52032819D02*
X136096476Y-52747104D01*
X136096476Y-52747104D02*
X136048857Y-52889961D01*
X136048857Y-52889961D02*
X135953619Y-52985200D01*
X135953619Y-52985200D02*
X135810762Y-53032819D01*
X135810762Y-53032819D02*
X135715524Y-53032819D01*
X137096476Y-53032819D02*
X136525048Y-53032819D01*
X136810762Y-53032819D02*
X136810762Y-52032819D01*
X136810762Y-52032819D02*
X136715524Y-52175676D01*
X136715524Y-52175676D02*
X136620286Y-52270914D01*
X136620286Y-52270914D02*
X136525048Y-52318533D01*
X138048857Y-53032819D02*
X137477429Y-53032819D01*
X137763143Y-53032819D02*
X137763143Y-52032819D01*
X137763143Y-52032819D02*
X137667905Y-52175676D01*
X137667905Y-52175676D02*
X137572667Y-52270914D01*
X137572667Y-52270914D02*
X137477429Y-52318533D01*
D11*
X135381904Y-139202580D02*
X135381904Y-138393057D01*
X135381904Y-138393057D02*
X135334285Y-138297819D01*
X135334285Y-138297819D02*
X135286666Y-138250200D01*
X135286666Y-138250200D02*
X135191428Y-138202580D01*
X135191428Y-138202580D02*
X135000952Y-138202580D01*
X135000952Y-138202580D02*
X134905714Y-138250200D01*
X134905714Y-138250200D02*
X134858095Y-138297819D01*
X134858095Y-138297819D02*
X134810476Y-138393057D01*
X134810476Y-138393057D02*
X134810476Y-139202580D01*
X133810476Y-138202580D02*
X134381904Y-138202580D01*
X134096190Y-138202580D02*
X134096190Y-139202580D01*
X134096190Y-139202580D02*
X134191428Y-139059723D01*
X134191428Y-139059723D02*
X134286666Y-138964485D01*
X134286666Y-138964485D02*
X134381904Y-138916866D01*
D10*
X126770819Y-47610723D02*
X127485104Y-47610723D01*
X127485104Y-47610723D02*
X127627961Y-47658342D01*
X127627961Y-47658342D02*
X127723200Y-47753580D01*
X127723200Y-47753580D02*
X127770819Y-47896437D01*
X127770819Y-47896437D02*
X127770819Y-47991675D01*
X127770819Y-46610723D02*
X127770819Y-47182151D01*
X127770819Y-46896437D02*
X126770819Y-46896437D01*
X126770819Y-46896437D02*
X126913676Y-46991675D01*
X126913676Y-46991675D02*
X127008914Y-47086913D01*
X127008914Y-47086913D02*
X127056533Y-47182151D01*
X127104152Y-45753580D02*
X127770819Y-45753580D01*
X126723200Y-45991675D02*
X127437485Y-46229770D01*
X127437485Y-46229770D02*
X127437485Y-45610723D01*
D12*
%TO.C,R4*%
X141410000Y-66652000D02*
X141480000Y-66652000D01*
X141410000Y-66652000D02*
G75*
G02*
X138670000Y-66652000I-1370000J0D01*
G01*
X138670000Y-66652000D02*
G75*
G02*
X141410000Y-66652000I1370000J0D01*
G01*
D13*
%TO.C,Q2*%
X139070000Y-85721000D02*
X139070000Y-90421000D01*
X139070000Y-90421000D02*
X149610000Y-90421000D01*
X149610000Y-85721000D02*
X139070000Y-85721000D01*
X149610000Y-90421000D02*
X149610000Y-85721000D01*
D14*
X146980000Y-85211000D02*
G75*
G02*
X146780000Y-85211000I-100000J0D01*
G01*
X146780000Y-85211000D02*
G75*
G02*
X146980000Y-85211000I100000J0D01*
G01*
D12*
%TO.C,J13*%
X109310000Y-50911200D02*
X109310000Y-52161200D01*
X109310000Y-52161200D02*
X110560000Y-52161200D01*
X109410000Y-50101200D02*
X109410000Y-50401200D01*
X109410000Y-50401200D02*
X109610000Y-50401200D01*
X109510000Y-50101200D02*
X109510000Y-50401200D01*
X109610000Y-41741200D02*
X109610000Y-51861200D01*
X109610000Y-49301200D02*
X110220000Y-49301200D01*
X109610000Y-50101200D02*
X109410000Y-50101200D01*
X109610000Y-51861200D02*
X114330000Y-51861200D01*
X110220000Y-42351200D02*
X110220000Y-44301200D01*
X110220000Y-44301200D02*
X109610000Y-44301200D01*
X110220000Y-49301200D02*
X110220000Y-51251200D01*
X110220000Y-51251200D02*
X113720000Y-51251200D01*
X110920000Y-41741200D02*
X110920000Y-42351200D01*
X110920000Y-51861200D02*
X110920000Y-51251200D01*
X112220000Y-41741200D02*
X112220000Y-42351200D01*
X112220000Y-51861200D02*
X112220000Y-51251200D01*
X113220000Y-44701200D02*
X113720000Y-44701200D01*
X113220000Y-44901200D02*
X113220000Y-44701200D01*
X113220000Y-46701200D02*
X113720000Y-46701200D01*
X113220000Y-46901200D02*
X113220000Y-46701200D01*
X113220000Y-48701200D02*
X113720000Y-48701200D01*
X113220000Y-48901200D02*
X113220000Y-48701200D01*
X113720000Y-42351200D02*
X110220000Y-42351200D01*
X113720000Y-44801200D02*
X113220000Y-44801200D01*
X113720000Y-44901200D02*
X113220000Y-44901200D01*
X113720000Y-46801200D02*
X113220000Y-46801200D01*
X113720000Y-46901200D02*
X113220000Y-46901200D01*
X113720000Y-48801200D02*
X113220000Y-48801200D01*
X113720000Y-48901200D02*
X113220000Y-48901200D01*
X113720000Y-51251200D02*
X113720000Y-42351200D01*
X114330000Y-41741200D02*
X109610000Y-41741200D01*
X114330000Y-51861200D02*
X114330000Y-41741200D01*
D13*
%TO.C,Q3*%
X116523000Y-85839000D02*
X116523000Y-90539000D01*
X116523000Y-90539000D02*
X127063000Y-90539000D01*
X127063000Y-85839000D02*
X116523000Y-85839000D01*
X127063000Y-90539000D02*
X127063000Y-85839000D01*
D14*
X124433000Y-85329000D02*
G75*
G02*
X124233000Y-85329000I-100000J0D01*
G01*
X124233000Y-85329000D02*
G75*
G02*
X124433000Y-85329000I100000J0D01*
G01*
D13*
%TO.C,Q1*%
X139070000Y-41652000D02*
X139070000Y-46352000D01*
X139070000Y-46352000D02*
X149610000Y-46352000D01*
X149610000Y-41652000D02*
X139070000Y-41652000D01*
X149610000Y-46352000D02*
X149610000Y-41652000D01*
D14*
X141910000Y-43532000D02*
G75*
G02*
X141710000Y-43532000I-100000J0D01*
G01*
X141710000Y-43532000D02*
G75*
G02*
X141910000Y-43532000I100000J0D01*
G01*
D12*
%TO.C,J10*%
X144706000Y-106954000D02*
X144706000Y-117074000D01*
X144706000Y-117074000D02*
X149426000Y-117074000D01*
X145316000Y-107564000D02*
X145316000Y-116464000D01*
X145316000Y-109914000D02*
X145816000Y-109914000D01*
X145316000Y-110014000D02*
X145816000Y-110014000D01*
X145316000Y-111914000D02*
X145816000Y-111914000D01*
X145316000Y-112014000D02*
X145816000Y-112014000D01*
X145316000Y-113914000D02*
X145816000Y-113914000D01*
X145316000Y-114014000D02*
X145816000Y-114014000D01*
X145316000Y-116464000D02*
X148816000Y-116464000D01*
X145816000Y-109914000D02*
X145816000Y-110114000D01*
X145816000Y-110114000D02*
X145316000Y-110114000D01*
X145816000Y-111914000D02*
X145816000Y-112114000D01*
X145816000Y-112114000D02*
X145316000Y-112114000D01*
X145816000Y-113914000D02*
X145816000Y-114114000D01*
X145816000Y-114114000D02*
X145316000Y-114114000D01*
X146816000Y-106954000D02*
X146816000Y-107564000D01*
X146816000Y-117074000D02*
X146816000Y-116464000D01*
X148116000Y-106954000D02*
X148116000Y-107564000D01*
X148116000Y-117074000D02*
X148116000Y-116464000D01*
X148816000Y-107564000D02*
X145316000Y-107564000D01*
X148816000Y-109514000D02*
X148816000Y-107564000D01*
X148816000Y-114514000D02*
X149426000Y-114514000D01*
X148816000Y-116464000D02*
X148816000Y-114514000D01*
X149426000Y-106954000D02*
X144706000Y-106954000D01*
X149426000Y-108714000D02*
X149626000Y-108714000D01*
X149426000Y-109514000D02*
X148816000Y-109514000D01*
X149426000Y-117074000D02*
X149426000Y-106954000D01*
X149526000Y-108714000D02*
X149526000Y-108414000D01*
X149626000Y-108414000D02*
X149426000Y-108414000D01*
X149626000Y-108714000D02*
X149626000Y-108414000D01*
X149726000Y-106654000D02*
X148476000Y-106654000D01*
X149726000Y-107904000D02*
X149726000Y-106654000D01*
%TO.C,J18*%
D11*
X149630000Y-36840000D02*
X129330000Y-36840000D01*
X129330000Y-30630000D01*
X149630000Y-30630000D01*
X149630000Y-36840000D01*
D12*
X146960000Y-32210000D02*
X146520000Y-31600000D01*
X147400000Y-31600000D01*
X146960000Y-32210000D01*
G36*
X146960000Y-32210000D02*
G01*
X146520000Y-31600000D01*
X147400000Y-31600000D01*
X146960000Y-32210000D01*
G37*
%TO.C,J17*%
D11*
X133316000Y-54991200D02*
X125396000Y-54991200D01*
X125396000Y-65291200D01*
X133316000Y-65291200D01*
X133316000Y-54991200D01*
D12*
X126336000Y-57541200D02*
X125726000Y-57981200D01*
X125726000Y-57101200D01*
X126336000Y-57541200D01*
G36*
X126336000Y-57541200D02*
G01*
X125726000Y-57981200D01*
X125726000Y-57101200D01*
X126336000Y-57541200D01*
G37*
%TO.C,R3*%
X141410000Y-72652000D02*
X141480000Y-72652000D01*
X141410000Y-72652000D02*
G75*
G02*
X138670000Y-72652000I-1370000J0D01*
G01*
X138670000Y-72652000D02*
G75*
G02*
X141410000Y-72652000I1370000J0D01*
G01*
%TO.C,J15*%
X109310000Y-63611200D02*
X109310000Y-64861200D01*
X109310000Y-64861200D02*
X110560000Y-64861200D01*
X109410000Y-62801200D02*
X109410000Y-63101200D01*
X109410000Y-63101200D02*
X109610000Y-63101200D01*
X109510000Y-62801200D02*
X109510000Y-63101200D01*
X109610000Y-54441200D02*
X109610000Y-64561200D01*
X109610000Y-62001200D02*
X110220000Y-62001200D01*
X109610000Y-62801200D02*
X109410000Y-62801200D01*
X109610000Y-64561200D02*
X114330000Y-64561200D01*
X110220000Y-55051200D02*
X110220000Y-57001200D01*
X110220000Y-57001200D02*
X109610000Y-57001200D01*
X110220000Y-62001200D02*
X110220000Y-63951200D01*
X110220000Y-63951200D02*
X113720000Y-63951200D01*
X110920000Y-54441200D02*
X110920000Y-55051200D01*
X110920000Y-64561200D02*
X110920000Y-63951200D01*
X112220000Y-54441200D02*
X112220000Y-55051200D01*
X112220000Y-64561200D02*
X112220000Y-63951200D01*
X113220000Y-57401200D02*
X113720000Y-57401200D01*
X113220000Y-57601200D02*
X113220000Y-57401200D01*
X113220000Y-59401200D02*
X113720000Y-59401200D01*
X113220000Y-59601200D02*
X113220000Y-59401200D01*
X113220000Y-61401200D02*
X113720000Y-61401200D01*
X113220000Y-61601200D02*
X113220000Y-61401200D01*
X113720000Y-55051200D02*
X110220000Y-55051200D01*
X113720000Y-57501200D02*
X113220000Y-57501200D01*
X113720000Y-57601200D02*
X113220000Y-57601200D01*
X113720000Y-59501200D02*
X113220000Y-59501200D01*
X113720000Y-59601200D02*
X113220000Y-59601200D01*
X113720000Y-61501200D02*
X113220000Y-61501200D01*
X113720000Y-61601200D02*
X113220000Y-61601200D01*
X113720000Y-63951200D02*
X113720000Y-55051200D01*
X114330000Y-54441200D02*
X109610000Y-54441200D01*
X114330000Y-64561200D02*
X114330000Y-54441200D01*
%TO.C,J9*%
X144750000Y-64592000D02*
X144750000Y-74712000D01*
X144750000Y-74712000D02*
X149470000Y-74712000D01*
X145360000Y-65202000D02*
X145360000Y-74102000D01*
X145360000Y-67552000D02*
X145860000Y-67552000D01*
X145360000Y-67652000D02*
X145860000Y-67652000D01*
X145360000Y-69552000D02*
X145860000Y-69552000D01*
X145360000Y-69652000D02*
X145860000Y-69652000D01*
X145360000Y-71552000D02*
X145860000Y-71552000D01*
X145360000Y-71652000D02*
X145860000Y-71652000D01*
X145360000Y-74102000D02*
X148860000Y-74102000D01*
X145860000Y-67552000D02*
X145860000Y-67752000D01*
X145860000Y-67752000D02*
X145360000Y-67752000D01*
X145860000Y-69552000D02*
X145860000Y-69752000D01*
X145860000Y-69752000D02*
X145360000Y-69752000D01*
X145860000Y-71552000D02*
X145860000Y-71752000D01*
X145860000Y-71752000D02*
X145360000Y-71752000D01*
X146860000Y-64592000D02*
X146860000Y-65202000D01*
X146860000Y-74712000D02*
X146860000Y-74102000D01*
X148160000Y-64592000D02*
X148160000Y-65202000D01*
X148160000Y-74712000D02*
X148160000Y-74102000D01*
X148860000Y-65202000D02*
X145360000Y-65202000D01*
X148860000Y-67152000D02*
X148860000Y-65202000D01*
X148860000Y-72152000D02*
X149470000Y-72152000D01*
X148860000Y-74102000D02*
X148860000Y-72152000D01*
X149470000Y-64592000D02*
X144750000Y-64592000D01*
X149470000Y-66352000D02*
X149670000Y-66352000D01*
X149470000Y-67152000D02*
X148860000Y-67152000D01*
X149470000Y-74712000D02*
X149470000Y-64592000D01*
X149570000Y-66352000D02*
X149570000Y-66052000D01*
X149670000Y-66052000D02*
X149470000Y-66052000D01*
X149670000Y-66352000D02*
X149670000Y-66052000D01*
X149770000Y-64292000D02*
X148520000Y-64292000D01*
X149770000Y-65542000D02*
X149770000Y-64292000D01*
%TO.C,J8*%
X144750000Y-57692000D02*
X144750000Y-63812000D01*
X144750000Y-63812000D02*
X149470000Y-63812000D01*
X145360000Y-58302000D02*
X145360000Y-63202000D01*
X145360000Y-60652000D02*
X145860000Y-60652000D01*
X145360000Y-60752000D02*
X145860000Y-60752000D01*
X145360000Y-63202000D02*
X148860000Y-63202000D01*
X145860000Y-60652000D02*
X145860000Y-60852000D01*
X145860000Y-60852000D02*
X145360000Y-60852000D01*
X146860000Y-57692000D02*
X146860000Y-58302000D01*
X146860000Y-63812000D02*
X146860000Y-63202000D01*
X148160000Y-57692000D02*
X148160000Y-58302000D01*
X148160000Y-63812000D02*
X148160000Y-63202000D01*
X148860000Y-58302000D02*
X145360000Y-58302000D01*
X148860000Y-60252000D02*
X148860000Y-58302000D01*
X148860000Y-61252000D02*
X149470000Y-61252000D01*
X148860000Y-63202000D02*
X148860000Y-61252000D01*
X149470000Y-57692000D02*
X144750000Y-57692000D01*
X149470000Y-59452000D02*
X149670000Y-59452000D01*
X149470000Y-60252000D02*
X148860000Y-60252000D01*
X149470000Y-63812000D02*
X149470000Y-57692000D01*
X149570000Y-59452000D02*
X149570000Y-59152000D01*
X149670000Y-59152000D02*
X149470000Y-59152000D01*
X149670000Y-59452000D02*
X149670000Y-59152000D01*
X149770000Y-57392000D02*
X148520000Y-57392000D01*
X149770000Y-58642000D02*
X149770000Y-57392000D01*
%TO.C,J16*%
D11*
X141740000Y-57102000D02*
X149660000Y-57102000D01*
X149660000Y-46802000D01*
X141740000Y-46802000D01*
X141740000Y-57102000D01*
D12*
X149330000Y-54992000D02*
X148720000Y-54552000D01*
X149330000Y-54112000D01*
X149330000Y-54992000D01*
G36*
X149330000Y-54992000D02*
G01*
X148720000Y-54552000D01*
X149330000Y-54112000D01*
X149330000Y-54992000D01*
G37*
%TO.C,J6*%
D11*
X111934600Y-66240000D02*
X122234600Y-66240000D01*
X122234600Y-74160000D01*
X111934600Y-74160000D01*
X111934600Y-66240000D01*
D12*
X114924600Y-73830000D02*
X114044600Y-73830000D01*
X114484600Y-73220000D01*
X114924600Y-73830000D01*
G36*
X114924600Y-73830000D02*
G01*
X114044600Y-73830000D01*
X114484600Y-73220000D01*
X114924600Y-73830000D01*
G37*
%TO.C,J5*%
D11*
X122234600Y-38600000D02*
X111934600Y-38600000D01*
X111934600Y-30680000D01*
X122234600Y-30680000D01*
X122234600Y-38600000D01*
D12*
X119684600Y-31620000D02*
X119244600Y-31010000D01*
X120124600Y-31010000D01*
X119684600Y-31620000D01*
G36*
X119684600Y-31620000D02*
G01*
X119244600Y-31010000D01*
X120124600Y-31010000D01*
X119684600Y-31620000D01*
G37*
%TO.C,R1*%
X141410000Y-69652000D02*
X141480000Y-69652000D01*
X141410000Y-69652000D02*
G75*
G02*
X138670000Y-69652000I-1370000J0D01*
G01*
X138670000Y-69652000D02*
G75*
G02*
X141410000Y-69652000I1370000J0D01*
G01*
%TO.C,J12*%
X119814000Y-41741200D02*
X119814000Y-51861200D01*
X119814000Y-51861200D02*
X124534000Y-51861200D01*
X120424000Y-42351200D02*
X120424000Y-51251200D01*
X120424000Y-44701200D02*
X120924000Y-44701200D01*
X120424000Y-44801200D02*
X120924000Y-44801200D01*
X120424000Y-46701200D02*
X120924000Y-46701200D01*
X120424000Y-46801200D02*
X120924000Y-46801200D01*
X120424000Y-48701200D02*
X120924000Y-48701200D01*
X120424000Y-48801200D02*
X120924000Y-48801200D01*
X120424000Y-51251200D02*
X123924000Y-51251200D01*
X120924000Y-44701200D02*
X120924000Y-44901200D01*
X120924000Y-44901200D02*
X120424000Y-44901200D01*
X120924000Y-46701200D02*
X120924000Y-46901200D01*
X120924000Y-46901200D02*
X120424000Y-46901200D01*
X120924000Y-48701200D02*
X120924000Y-48901200D01*
X120924000Y-48901200D02*
X120424000Y-48901200D01*
X121924000Y-41741200D02*
X121924000Y-42351200D01*
X121924000Y-51861200D02*
X121924000Y-51251200D01*
X123224000Y-41741200D02*
X123224000Y-42351200D01*
X123224000Y-51861200D02*
X123224000Y-51251200D01*
X123924000Y-42351200D02*
X120424000Y-42351200D01*
X123924000Y-44301200D02*
X123924000Y-42351200D01*
X123924000Y-49301200D02*
X124534000Y-49301200D01*
X123924000Y-51251200D02*
X123924000Y-49301200D01*
X124534000Y-41741200D02*
X119814000Y-41741200D01*
X124534000Y-43501200D02*
X124734000Y-43501200D01*
X124534000Y-44301200D02*
X123924000Y-44301200D01*
X124534000Y-51861200D02*
X124534000Y-41741200D01*
X124634000Y-43501200D02*
X124634000Y-43201200D01*
X124734000Y-43201200D02*
X124534000Y-43201200D01*
X124734000Y-43501200D02*
X124734000Y-43201200D01*
X124834000Y-41441200D02*
X123584000Y-41441200D01*
X124834000Y-42691200D02*
X124834000Y-41441200D01*
%TO.C,J1*%
D11*
X119360000Y-94948960D02*
X149660000Y-94948960D01*
X149660000Y-101398960D01*
X119360000Y-101398960D01*
X119360000Y-94948960D01*
D12*
X122350000Y-101128960D02*
X121470000Y-101128960D01*
X121910000Y-100518960D01*
X122350000Y-101128960D01*
G36*
X122350000Y-101128960D02*
G01*
X121470000Y-101128960D01*
X121910000Y-100518960D01*
X122350000Y-101128960D01*
G37*
%TO.C,J11*%
X138390000Y-46992000D02*
X139770000Y-46992000D01*
X138390000Y-48372000D02*
X138390000Y-46992000D01*
X138390000Y-49642000D02*
X138390000Y-62452000D01*
X138390000Y-49642000D02*
X141150000Y-49642000D01*
X138390000Y-62452000D02*
X141150000Y-62452000D01*
X141150000Y-49642000D02*
X141150000Y-62452000D01*
%TO.C,U1*%
D11*
X140970000Y-107061000D02*
X130810000Y-107061000D01*
X130810000Y-104521000D01*
X140970000Y-104521000D01*
X140970000Y-107061000D01*
X140970000Y-149225000D02*
X130810000Y-149225000D01*
X130810000Y-146685000D01*
X140970000Y-146685000D01*
X140970000Y-149225000D01*
X142875000Y-151765000D02*
X128905000Y-151765000D01*
X128905000Y-104521000D01*
X142875000Y-104521000D01*
X142875000Y-151765000D01*
D12*
%TO.C,J14*%
X128106000Y-50911200D02*
X128106000Y-52161200D01*
X128106000Y-52161200D02*
X129356000Y-52161200D01*
X128206000Y-50101200D02*
X128206000Y-50401200D01*
X128206000Y-50401200D02*
X128406000Y-50401200D01*
X128306000Y-50101200D02*
X128306000Y-50401200D01*
X128406000Y-41741200D02*
X128406000Y-51861200D01*
X128406000Y-49301200D02*
X129016000Y-49301200D01*
X128406000Y-50101200D02*
X128206000Y-50101200D01*
X128406000Y-51861200D02*
X133126000Y-51861200D01*
X129016000Y-42351200D02*
X129016000Y-44301200D01*
X129016000Y-44301200D02*
X128406000Y-44301200D01*
X129016000Y-49301200D02*
X129016000Y-51251200D01*
X129016000Y-51251200D02*
X132516000Y-51251200D01*
X129716000Y-41741200D02*
X129716000Y-42351200D01*
X129716000Y-51861200D02*
X129716000Y-51251200D01*
X131016000Y-41741200D02*
X131016000Y-42351200D01*
X131016000Y-51861200D02*
X131016000Y-51251200D01*
X132016000Y-44701200D02*
X132516000Y-44701200D01*
X132016000Y-44901200D02*
X132016000Y-44701200D01*
X132016000Y-46701200D02*
X132516000Y-46701200D01*
X132016000Y-46901200D02*
X132016000Y-46701200D01*
X132016000Y-48701200D02*
X132516000Y-48701200D01*
X132016000Y-48901200D02*
X132016000Y-48701200D01*
X132516000Y-42351200D02*
X129016000Y-42351200D01*
X132516000Y-44801200D02*
X132016000Y-44801200D01*
X132516000Y-44901200D02*
X132016000Y-44901200D01*
X132516000Y-46801200D02*
X132016000Y-46801200D01*
X132516000Y-46901200D02*
X132016000Y-46901200D01*
X132516000Y-48801200D02*
X132016000Y-48801200D01*
X132516000Y-48901200D02*
X132016000Y-48901200D01*
X132516000Y-51251200D02*
X132516000Y-42351200D01*
X133126000Y-41741200D02*
X128406000Y-41741200D01*
X133126000Y-51861200D02*
X133126000Y-41741200D01*
%TD*%
M02*
