%TF.GenerationSoftware,KiCad,Pcbnew,9.0.5*%
%TF.CreationDate,2026-03-16T21:50:03-07:00*%
%TF.ProjectId,Sensor_Sled,53656e73-6f72-45f5-936c-65642e6b6963,rev?*%
%TF.SameCoordinates,Original*%
%TF.FileFunction,Soldermask,Bot*%
%TF.FilePolarity,Negative*%
%FSLAX46Y46*%
G04 Gerber Fmt 4.6, Leading zero omitted, Abs format (unit mm)*
G04 Created by KiCad (PCBNEW 9.0.5) date 2026-03-16 21:50:03*
%MOMM*%
%LPD*%
G01*
G04 APERTURE LIST*
G04 Aperture macros list*
%AMRoundRect*
0 Rectangle with rounded corners*
0 $1 Rounding radius*
0 $2 $3 $4 $5 $6 $7 $8 $9 X,Y pos of 4 corners*
0 Add a 4 corners polygon primitive as box body*
4,1,4,$2,$3,$4,$5,$6,$7,$8,$9,$2,$3,0*
0 Add four circle primitives for the rounded corners*
1,1,$1+$1,$2,$3*
1,1,$1+$1,$4,$5*
1,1,$1+$1,$6,$7*
1,1,$1+$1,$8,$9*
0 Add four rect primitives between the rounded corners*
20,1,$1+$1,$2,$3,$4,$5,0*
20,1,$1+$1,$4,$5,$6,$7,0*
20,1,$1+$1,$6,$7,$8,$9,0*
20,1,$1+$1,$8,$9,$2,$3,0*%
G04 Aperture macros list end*
%ADD10RoundRect,0.250000X-0.625000X0.350000X-0.625000X-0.350000X0.625000X-0.350000X0.625000X0.350000X0*%
%ADD11O,1.750000X1.200000*%
%ADD12RoundRect,0.250000X-0.750000X-0.750000X0.750000X-0.750000X0.750000X0.750000X-0.750000X0.750000X0*%
%ADD13C,2.000000*%
%ADD14C,1.512000*%
%ADD15C,1.600000*%
%ADD16R,2.000000X2.000000*%
%ADD17C,1.905000*%
%ADD18RoundRect,0.102000X0.925000X0.925000X-0.925000X0.925000X-0.925000X-0.925000X0.925000X-0.925000X0*%
%ADD19C,2.054000*%
%ADD20C,1.200000*%
G04 APERTURE END LIST*
D10*
%TO.C,J7*%
X147616000Y-75740000D03*
D11*
X147616000Y-77740000D03*
X147616000Y-79740000D03*
X147616000Y-81740000D03*
%TD*%
D10*
%TO.C,J5*%
X112564000Y-75740000D03*
D11*
X112564000Y-77740000D03*
X112564000Y-79740000D03*
X112564000Y-81740000D03*
%TD*%
D12*
%TO.C,J1*%
X141605000Y-34715500D03*
D13*
X145415000Y-34715500D03*
%TD*%
D10*
%TO.C,J3*%
X112564000Y-50340000D03*
D11*
X112564000Y-52340000D03*
X112564000Y-54340000D03*
X112564000Y-56340000D03*
%TD*%
D10*
%TO.C,J6*%
X112564000Y-88440000D03*
D11*
X112564000Y-90440000D03*
X112564000Y-92440000D03*
X112564000Y-94440000D03*
%TD*%
D14*
%TO.C,U1*%
X120650000Y-41554400D03*
X120650000Y-44094400D03*
X120650000Y-46634400D03*
X120650000Y-49174400D03*
X120650000Y-74574400D03*
X135890000Y-44094400D03*
X120650000Y-51714400D03*
X120650000Y-54254400D03*
X120650000Y-56794400D03*
X120650000Y-59334400D03*
X120650000Y-61874400D03*
X120650000Y-64414400D03*
X120650000Y-66954400D03*
X120650000Y-69494400D03*
X120650000Y-72034400D03*
X135890000Y-72034400D03*
X135890000Y-69494400D03*
X135890000Y-66954400D03*
X135890000Y-64414400D03*
X135890000Y-61874400D03*
X135890000Y-59334400D03*
X135890000Y-56794400D03*
X135890000Y-54254400D03*
X135890000Y-51714400D03*
X135890000Y-49174400D03*
X135890000Y-46634400D03*
X120650000Y-77114400D03*
X120650000Y-79654400D03*
X120650000Y-82194400D03*
X120650000Y-84734400D03*
X120650000Y-87274400D03*
X120650000Y-89814400D03*
X120650000Y-92354400D03*
X120650000Y-94894400D03*
X120650000Y-97434400D03*
X135890000Y-97434400D03*
X135890000Y-94894400D03*
X135890000Y-92354400D03*
X135890000Y-89814400D03*
X135890000Y-87274400D03*
X135890000Y-84734400D03*
X135890000Y-82194400D03*
X135890000Y-79654400D03*
X135890000Y-77114400D03*
X120650000Y-39014400D03*
X135890000Y-74574400D03*
X135890000Y-41554400D03*
X135890000Y-39014400D03*
%TD*%
D15*
%TO.C,R3*%
X138684000Y-43586400D03*
X146304000Y-43586400D03*
%TD*%
D10*
%TO.C,J8*%
X147616000Y-88440000D03*
D11*
X147616000Y-90440000D03*
X147616000Y-92440000D03*
X147616000Y-94440000D03*
%TD*%
D10*
%TO.C,J4*%
X112564000Y-63040000D03*
D11*
X112564000Y-65040000D03*
X112564000Y-67040000D03*
X112564000Y-69040000D03*
%TD*%
D16*
%TO.C,BZ1*%
X137708000Y-103886000D03*
D13*
X145328000Y-103886000D03*
%TD*%
D17*
%TO.C,U4*%
X128270000Y-127508000D03*
X130810000Y-127508000D03*
X133350000Y-127508000D03*
X135890000Y-127508000D03*
X138430000Y-127508000D03*
X140970000Y-127508000D03*
X143510000Y-127508000D03*
%TD*%
D10*
%TO.C,J2*%
X112522000Y-37624000D03*
D11*
X112522000Y-39624000D03*
X112522000Y-41624000D03*
X112522000Y-43624000D03*
%TD*%
D18*
%TO.C,Q1*%
X146304000Y-51714400D03*
D19*
X143764000Y-51714400D03*
X141224000Y-51714400D03*
%TD*%
D15*
%TO.C,R2*%
X138684000Y-46634400D03*
X146304000Y-46634400D03*
%TD*%
D17*
%TO.C,U3*%
X126890000Y-149748000D03*
X129430000Y-149748000D03*
X131970000Y-149748000D03*
X134510000Y-149748000D03*
X137050000Y-149748000D03*
X139590000Y-149748000D03*
X142130000Y-149748000D03*
X144670000Y-149748000D03*
%TD*%
D20*
%TO.C,C3*%
X124258000Y-47246000D03*
X125758000Y-47246000D03*
%TD*%
%TO.C,C2*%
X124258000Y-53088000D03*
X125758000Y-53088000D03*
%TD*%
%TO.C,C5*%
X127520000Y-142748000D03*
X129020000Y-142748000D03*
%TD*%
%TO.C,C4*%
X124008000Y-40896000D03*
X126008000Y-40896000D03*
%TD*%
%TO.C,C1*%
X124258000Y-58930000D03*
X125758000Y-58930000D03*
%TD*%
%TO.C,C8*%
X128282000Y-121158000D03*
X129782000Y-121158000D03*
%TD*%
M02*
