%TF.GenerationSoftware,KiCad,Pcbnew,9.0.5*%
%TF.CreationDate,2026-03-16T21:50:03-07:00*%
%TF.ProjectId,Sensor_Sled,53656e73-6f72-45f5-936c-65642e6b6963,rev?*%
%TF.SameCoordinates,Original*%
%TF.FileFunction,Legend,Bot*%
%TF.FilePolarity,Positive*%
%FSLAX46Y46*%
G04 Gerber Fmt 4.6, Leading zero omitted, Abs format (unit mm)*
G04 Created by KiCad (PCBNEW 9.0.5) date 2026-03-16 21:50:03*
%MOMM*%
%LPD*%
G01*
G04 APERTURE LIST*
%ADD10C,0.150000*%
%ADD11C,0.120000*%
G04 APERTURE END LIST*
D10*
X127985054Y-50337890D02*
X128032673Y-50385510D01*
X128032673Y-50385510D02*
X128175530Y-50433129D01*
X128175530Y-50433129D02*
X128270768Y-50433129D01*
X128270768Y-50433129D02*
X128413625Y-50385510D01*
X128413625Y-50385510D02*
X128508863Y-50290271D01*
X128508863Y-50290271D02*
X128556482Y-50195033D01*
X128556482Y-50195033D02*
X128604101Y-50004557D01*
X128604101Y-50004557D02*
X128604101Y-49861700D01*
X128604101Y-49861700D02*
X128556482Y-49671224D01*
X128556482Y-49671224D02*
X128508863Y-49575986D01*
X128508863Y-49575986D02*
X128413625Y-49480748D01*
X128413625Y-49480748D02*
X128270768Y-49433129D01*
X128270768Y-49433129D02*
X128175530Y-49433129D01*
X128175530Y-49433129D02*
X128032673Y-49480748D01*
X128032673Y-49480748D02*
X127985054Y-49528367D01*
X127651720Y-49433129D02*
X127032673Y-49433129D01*
X127032673Y-49433129D02*
X127366006Y-49814081D01*
X127366006Y-49814081D02*
X127223149Y-49814081D01*
X127223149Y-49814081D02*
X127127911Y-49861700D01*
X127127911Y-49861700D02*
X127080292Y-49909319D01*
X127080292Y-49909319D02*
X127032673Y-50004557D01*
X127032673Y-50004557D02*
X127032673Y-50242652D01*
X127032673Y-50242652D02*
X127080292Y-50337890D01*
X127080292Y-50337890D02*
X127127911Y-50385510D01*
X127127911Y-50385510D02*
X127223149Y-50433129D01*
X127223149Y-50433129D02*
X127508863Y-50433129D01*
X127508863Y-50433129D02*
X127604101Y-50385510D01*
X127604101Y-50385510D02*
X127651720Y-50337890D01*
X127685080Y-56037396D02*
X127732699Y-56085016D01*
X127732699Y-56085016D02*
X127875556Y-56132635D01*
X127875556Y-56132635D02*
X127970794Y-56132635D01*
X127970794Y-56132635D02*
X128113651Y-56085016D01*
X128113651Y-56085016D02*
X128208889Y-55989777D01*
X128208889Y-55989777D02*
X128256508Y-55894539D01*
X128256508Y-55894539D02*
X128304127Y-55704063D01*
X128304127Y-55704063D02*
X128304127Y-55561206D01*
X128304127Y-55561206D02*
X128256508Y-55370730D01*
X128256508Y-55370730D02*
X128208889Y-55275492D01*
X128208889Y-55275492D02*
X128113651Y-55180254D01*
X128113651Y-55180254D02*
X127970794Y-55132635D01*
X127970794Y-55132635D02*
X127875556Y-55132635D01*
X127875556Y-55132635D02*
X127732699Y-55180254D01*
X127732699Y-55180254D02*
X127685080Y-55227873D01*
X127304127Y-55227873D02*
X127256508Y-55180254D01*
X127256508Y-55180254D02*
X127161270Y-55132635D01*
X127161270Y-55132635D02*
X126923175Y-55132635D01*
X126923175Y-55132635D02*
X126827937Y-55180254D01*
X126827937Y-55180254D02*
X126780318Y-55227873D01*
X126780318Y-55227873D02*
X126732699Y-55323111D01*
X126732699Y-55323111D02*
X126732699Y-55418349D01*
X126732699Y-55418349D02*
X126780318Y-55561206D01*
X126780318Y-55561206D02*
X127351746Y-56132635D01*
X127351746Y-56132635D02*
X126732699Y-56132635D01*
X128436666Y-146357580D02*
X128484285Y-146405200D01*
X128484285Y-146405200D02*
X128627142Y-146452819D01*
X128627142Y-146452819D02*
X128722380Y-146452819D01*
X128722380Y-146452819D02*
X128865237Y-146405200D01*
X128865237Y-146405200D02*
X128960475Y-146309961D01*
X128960475Y-146309961D02*
X129008094Y-146214723D01*
X129008094Y-146214723D02*
X129055713Y-146024247D01*
X129055713Y-146024247D02*
X129055713Y-145881390D01*
X129055713Y-145881390D02*
X129008094Y-145690914D01*
X129008094Y-145690914D02*
X128960475Y-145595676D01*
X128960475Y-145595676D02*
X128865237Y-145500438D01*
X128865237Y-145500438D02*
X128722380Y-145452819D01*
X128722380Y-145452819D02*
X128627142Y-145452819D01*
X128627142Y-145452819D02*
X128484285Y-145500438D01*
X128484285Y-145500438D02*
X128436666Y-145548057D01*
X127531904Y-145452819D02*
X128008094Y-145452819D01*
X128008094Y-145452819D02*
X128055713Y-145929009D01*
X128055713Y-145929009D02*
X128008094Y-145881390D01*
X128008094Y-145881390D02*
X127912856Y-145833771D01*
X127912856Y-145833771D02*
X127674761Y-145833771D01*
X127674761Y-145833771D02*
X127579523Y-145881390D01*
X127579523Y-145881390D02*
X127531904Y-145929009D01*
X127531904Y-145929009D02*
X127484285Y-146024247D01*
X127484285Y-146024247D02*
X127484285Y-146262342D01*
X127484285Y-146262342D02*
X127531904Y-146357580D01*
X127531904Y-146357580D02*
X127579523Y-146405200D01*
X127579523Y-146405200D02*
X127674761Y-146452819D01*
X127674761Y-146452819D02*
X127912856Y-146452819D01*
X127912856Y-146452819D02*
X128008094Y-146405200D01*
X128008094Y-146405200D02*
X128055713Y-146357580D01*
X128285028Y-44038436D02*
X128332647Y-44086056D01*
X128332647Y-44086056D02*
X128475504Y-44133675D01*
X128475504Y-44133675D02*
X128570742Y-44133675D01*
X128570742Y-44133675D02*
X128713599Y-44086056D01*
X128713599Y-44086056D02*
X128808837Y-43990817D01*
X128808837Y-43990817D02*
X128856456Y-43895579D01*
X128856456Y-43895579D02*
X128904075Y-43705103D01*
X128904075Y-43705103D02*
X128904075Y-43562246D01*
X128904075Y-43562246D02*
X128856456Y-43371770D01*
X128856456Y-43371770D02*
X128808837Y-43276532D01*
X128808837Y-43276532D02*
X128713599Y-43181294D01*
X128713599Y-43181294D02*
X128570742Y-43133675D01*
X128570742Y-43133675D02*
X128475504Y-43133675D01*
X128475504Y-43133675D02*
X128332647Y-43181294D01*
X128332647Y-43181294D02*
X128285028Y-43228913D01*
X127427885Y-43467008D02*
X127427885Y-44133675D01*
X127665980Y-43086056D02*
X127904075Y-43800341D01*
X127904075Y-43800341D02*
X127285028Y-43800341D01*
X127385106Y-61736902D02*
X127432725Y-61784522D01*
X127432725Y-61784522D02*
X127575582Y-61832141D01*
X127575582Y-61832141D02*
X127670820Y-61832141D01*
X127670820Y-61832141D02*
X127813677Y-61784522D01*
X127813677Y-61784522D02*
X127908915Y-61689283D01*
X127908915Y-61689283D02*
X127956534Y-61594045D01*
X127956534Y-61594045D02*
X128004153Y-61403569D01*
X128004153Y-61403569D02*
X128004153Y-61260712D01*
X128004153Y-61260712D02*
X127956534Y-61070236D01*
X127956534Y-61070236D02*
X127908915Y-60974998D01*
X127908915Y-60974998D02*
X127813677Y-60879760D01*
X127813677Y-60879760D02*
X127670820Y-60832141D01*
X127670820Y-60832141D02*
X127575582Y-60832141D01*
X127575582Y-60832141D02*
X127432725Y-60879760D01*
X127432725Y-60879760D02*
X127385106Y-60927379D01*
X126432725Y-61832141D02*
X127004153Y-61832141D01*
X126718439Y-61832141D02*
X126718439Y-60832141D01*
X126718439Y-60832141D02*
X126813677Y-60974998D01*
X126813677Y-60974998D02*
X126908915Y-61070236D01*
X126908915Y-61070236D02*
X127004153Y-61117855D01*
X129198666Y-124767580D02*
X129246285Y-124815200D01*
X129246285Y-124815200D02*
X129389142Y-124862819D01*
X129389142Y-124862819D02*
X129484380Y-124862819D01*
X129484380Y-124862819D02*
X129627237Y-124815200D01*
X129627237Y-124815200D02*
X129722475Y-124719961D01*
X129722475Y-124719961D02*
X129770094Y-124624723D01*
X129770094Y-124624723D02*
X129817713Y-124434247D01*
X129817713Y-124434247D02*
X129817713Y-124291390D01*
X129817713Y-124291390D02*
X129770094Y-124100914D01*
X129770094Y-124100914D02*
X129722475Y-124005676D01*
X129722475Y-124005676D02*
X129627237Y-123910438D01*
X129627237Y-123910438D02*
X129484380Y-123862819D01*
X129484380Y-123862819D02*
X129389142Y-123862819D01*
X129389142Y-123862819D02*
X129246285Y-123910438D01*
X129246285Y-123910438D02*
X129198666Y-123958057D01*
X128627237Y-124291390D02*
X128722475Y-124243771D01*
X128722475Y-124243771D02*
X128770094Y-124196152D01*
X128770094Y-124196152D02*
X128817713Y-124100914D01*
X128817713Y-124100914D02*
X128817713Y-124053295D01*
X128817713Y-124053295D02*
X128770094Y-123958057D01*
X128770094Y-123958057D02*
X128722475Y-123910438D01*
X128722475Y-123910438D02*
X128627237Y-123862819D01*
X128627237Y-123862819D02*
X128436761Y-123862819D01*
X128436761Y-123862819D02*
X128341523Y-123910438D01*
X128341523Y-123910438D02*
X128293904Y-123958057D01*
X128293904Y-123958057D02*
X128246285Y-124053295D01*
X128246285Y-124053295D02*
X128246285Y-124100914D01*
X128246285Y-124100914D02*
X128293904Y-124196152D01*
X128293904Y-124196152D02*
X128341523Y-124243771D01*
X128341523Y-124243771D02*
X128436761Y-124291390D01*
X128436761Y-124291390D02*
X128627237Y-124291390D01*
X128627237Y-124291390D02*
X128722475Y-124339009D01*
X128722475Y-124339009D02*
X128770094Y-124386628D01*
X128770094Y-124386628D02*
X128817713Y-124481866D01*
X128817713Y-124481866D02*
X128817713Y-124672342D01*
X128817713Y-124672342D02*
X128770094Y-124767580D01*
X128770094Y-124767580D02*
X128722475Y-124815200D01*
X128722475Y-124815200D02*
X128627237Y-124862819D01*
X128627237Y-124862819D02*
X128436761Y-124862819D01*
X128436761Y-124862819D02*
X128341523Y-124815200D01*
X128341523Y-124815200D02*
X128293904Y-124767580D01*
X128293904Y-124767580D02*
X128246285Y-124672342D01*
X128246285Y-124672342D02*
X128246285Y-124481866D01*
X128246285Y-124481866D02*
X128293904Y-124386628D01*
X128293904Y-124386628D02*
X128341523Y-124339009D01*
X128341523Y-124339009D02*
X128436761Y-124291390D01*
D11*
%TO.C,C3*%
X127128000Y-47246000D02*
G75*
G02*
X122888000Y-47246000I-2120000J0D01*
G01*
X122888000Y-47246000D02*
G75*
G02*
X127128000Y-47246000I2120000J0D01*
G01*
%TO.C,C2*%
X127128000Y-53088000D02*
G75*
G02*
X122888000Y-53088000I-2120000J0D01*
G01*
X122888000Y-53088000D02*
G75*
G02*
X127128000Y-53088000I2120000J0D01*
G01*
%TO.C,C5*%
X130390000Y-142748000D02*
G75*
G02*
X126150000Y-142748000I-2120000J0D01*
G01*
X126150000Y-142748000D02*
G75*
G02*
X130390000Y-142748000I2120000J0D01*
G01*
%TO.C,C4*%
X127628000Y-40896000D02*
G75*
G02*
X122388000Y-40896000I-2620000J0D01*
G01*
X122388000Y-40896000D02*
G75*
G02*
X127628000Y-40896000I2620000J0D01*
G01*
%TO.C,C1*%
X127128000Y-58930000D02*
G75*
G02*
X122888000Y-58930000I-2120000J0D01*
G01*
X122888000Y-58930000D02*
G75*
G02*
X127128000Y-58930000I2120000J0D01*
G01*
%TO.C,C8*%
X131152000Y-121158000D02*
G75*
G02*
X126912000Y-121158000I-2120000J0D01*
G01*
X126912000Y-121158000D02*
G75*
G02*
X131152000Y-121158000I2120000J0D01*
G01*
%TD*%
M02*
