%TF.GenerationSoftware,KiCad,Pcbnew,9.0.5*%
%TF.CreationDate,2026-03-16T21:50:03-07:00*%
%TF.ProjectId,Sensor_Sled,53656e73-6f72-45f5-936c-65642e6b6963,rev?*%
%TF.SameCoordinates,Original*%
%TF.FileFunction,Copper,L1,Top*%
%TF.FilePolarity,Positive*%
%FSLAX46Y46*%
G04 Gerber Fmt 4.6, Leading zero omitted, Abs format (unit mm)*
G04 Created by KiCad (PCBNEW 9.0.5) date 2026-03-16 21:50:03*
%MOMM*%
%LPD*%
G01*
G04 APERTURE LIST*
G04 Aperture macros list*
%AMRoundRect*
0 Rectangle with rounded corners*
0 $1 Rounding radius*
0 $2 $3 $4 $5 $6 $7 $8 $9 X,Y pos of 4 corners*
0 Add a 4 corners polygon primitive as box body*
4,1,4,$2,$3,$4,$5,$6,$7,$8,$9,$2,$3,0*
0 Add four circle primitives for the rounded corners*
1,1,$1+$1,$2,$3*
1,1,$1+$1,$4,$5*
1,1,$1+$1,$6,$7*
1,1,$1+$1,$8,$9*
0 Add four rect primitives between the rounded corners*
20,1,$1+$1,$2,$3,$4,$5,0*
20,1,$1+$1,$4,$5,$6,$7,0*
20,1,$1+$1,$6,$7,$8,$9,0*
20,1,$1+$1,$8,$9,$2,$3,0*%
G04 Aperture macros list end*
%TA.AperFunction,ComponentPad*%
%ADD10RoundRect,0.250000X-0.625000X0.350000X-0.625000X-0.350000X0.625000X-0.350000X0.625000X0.350000X0*%
%TD*%
%TA.AperFunction,ComponentPad*%
%ADD11O,1.750000X1.200000*%
%TD*%
%TA.AperFunction,ComponentPad*%
%ADD12RoundRect,0.250000X-0.750000X-0.750000X0.750000X-0.750000X0.750000X0.750000X-0.750000X0.750000X0*%
%TD*%
%TA.AperFunction,ComponentPad*%
%ADD13C,2.000000*%
%TD*%
%TA.AperFunction,ComponentPad*%
%ADD14C,1.308000*%
%TD*%
%TA.AperFunction,ComponentPad*%
%ADD15C,1.600000*%
%TD*%
%TA.AperFunction,ComponentPad*%
%ADD16R,2.000000X2.000000*%
%TD*%
%TA.AperFunction,ComponentPad*%
%ADD17C,1.905000*%
%TD*%
%TA.AperFunction,ComponentPad*%
%ADD18R,1.850000X1.850000*%
%TD*%
%TA.AperFunction,ComponentPad*%
%ADD19C,1.850000*%
%TD*%
%TA.AperFunction,ComponentPad*%
%ADD20C,1.200000*%
%TD*%
%TA.AperFunction,ViaPad*%
%ADD21C,0.600000*%
%TD*%
%TA.AperFunction,ViaPad*%
%ADD22C,0.500000*%
%TD*%
%TA.AperFunction,Conductor*%
%ADD23C,0.200000*%
%TD*%
%TA.AperFunction,Conductor*%
%ADD24C,2.000001*%
%TD*%
%TA.AperFunction,Conductor*%
%ADD25C,1.000000*%
%TD*%
G04 APERTURE END LIST*
D10*
%TO.P,J7,1,Pin_1*%
%TO.N,/RX4*%
X147616000Y-75740000D03*
D11*
%TO.P,J7,2,Pin_2*%
%TO.N,/TX4*%
X147616000Y-77740000D03*
%TO.P,J7,3,Pin_3*%
%TO.N,/RX3*%
X147616000Y-79740000D03*
%TO.P,J7,4,Pin_4*%
%TO.N,/TX3*%
X147616000Y-81740000D03*
%TD*%
D10*
%TO.P,J5,1,Pin_1*%
%TO.N,+5V*%
X112564000Y-75740000D03*
D11*
%TO.P,J5,2,Pin_2*%
%TO.N,/TX6*%
X112564000Y-77740000D03*
%TO.P,J5,3,Pin_3*%
%TO.N,/RX6*%
X112564000Y-79740000D03*
%TO.P,J5,4,Pin_4*%
%TO.N,/SOIL_ENABLE*%
X112564000Y-81740000D03*
%TD*%
D12*
%TO.P,J1,1,Pin_1*%
%TO.N,+5V*%
X141605000Y-34715500D03*
D13*
%TO.P,J1,2,Pin_2*%
%TO.N,Net-(J1-Pin_2)*%
X145415000Y-34715500D03*
%TD*%
D10*
%TO.P,J3,1,Pin_1*%
%TO.N,/Chassis_Out_0*%
X112564000Y-50340000D03*
D11*
%TO.P,J3,2,Pin_2*%
%TO.N,/Chassis_Out_1*%
X112564000Y-52340000D03*
%TO.P,J3,3,Pin_3*%
%TO.N,/Chassis_Encoder_A*%
X112564000Y-54340000D03*
%TO.P,J3,4,Pin_4*%
%TO.N,/Chassis_Encoder_B*%
X112564000Y-56340000D03*
%TD*%
D10*
%TO.P,J6,1,Pin_1*%
%TO.N,/RESERVE_0*%
X112564000Y-88440000D03*
D11*
%TO.P,J6,2,Pin_2*%
%TO.N,/RESERVE_1*%
X112564000Y-90440000D03*
%TO.P,J6,3,Pin_3*%
%TO.N,/RESERVE_2*%
X112564000Y-92440000D03*
%TO.P,J6,4,Pin_4*%
%TO.N,/RESERVE_3*%
X112564000Y-94440000D03*
%TD*%
D14*
%TO.P,U1,0,RX1*%
%TO.N,/SERVO_0*%
X120650000Y-41554400D03*
%TO.P,U1,1,TX1*%
%TO.N,/SERVO_1*%
X120650000Y-44094400D03*
%TO.P,U1,2,OUT2*%
%TO.N,/SERVO_2*%
X120650000Y-46634400D03*
%TO.P,U1,3,LRCLK2*%
%TO.N,/SERVO_3*%
X120650000Y-49174400D03*
%TO.P,U1,3.3V_1,3.3V*%
%TO.N,+3V3*%
X120650000Y-74574400D03*
%TO.P,U1,3.3V_2,3.3V*%
X135890000Y-44094400D03*
%TO.P,U1,4,BCLK2*%
%TO.N,/Chassis_Out_0*%
X120650000Y-51714400D03*
%TO.P,U1,5,IN2*%
%TO.N,/Chassis_Out_1*%
X120650000Y-54254400D03*
%TO.P,U1,6,OUT1D*%
%TO.N,/Chassis_Encoder_A*%
X120650000Y-56794400D03*
%TO.P,U1,7,RX2*%
%TO.N,/Chassis_Encoder_B*%
X120650000Y-59334400D03*
%TO.P,U1,8,TX2*%
%TO.N,/DRILL*%
X120650000Y-61874400D03*
%TO.P,U1,9,OUT1C*%
%TO.N,/ROVER_TOP*%
X120650000Y-64414400D03*
%TO.P,U1,10,CS1*%
%TO.N,/ROVER_BOT*%
X120650000Y-66954400D03*
%TO.P,U1,11,MOSI*%
%TO.N,unconnected-(U1-MOSI-Pad11)*%
X120650000Y-69494400D03*
%TO.P,U1,12,MISO*%
%TO.N,unconnected-(U1-MISO-Pad12)*%
X120650000Y-72034400D03*
%TO.P,U1,13,SCK*%
%TO.N,unconnected-(U1-SCK-Pad13)*%
X135890000Y-72034400D03*
%TO.P,U1,14,A0*%
%TO.N,/TX3*%
X135890000Y-69494400D03*
%TO.P,U1,15,A1*%
%TO.N,/RX3*%
X135890000Y-66954400D03*
%TO.P,U1,16,A2*%
%TO.N,/RX4*%
X135890000Y-64414400D03*
%TO.P,U1,17,A3*%
%TO.N,/TX4*%
X135890000Y-61874400D03*
%TO.P,U1,18,A4*%
%TO.N,Net-(U1-A4)*%
X135890000Y-59334400D03*
%TO.P,U1,19,A5*%
%TO.N,Net-(U1-A5)*%
X135890000Y-56794400D03*
%TO.P,U1,20,A6*%
%TO.N,unconnected-(U1-A6-Pad20)*%
X135890000Y-54254400D03*
%TO.P,U1,21,A7*%
%TO.N,unconnected-(U1-A7-Pad21)*%
X135890000Y-51714400D03*
%TO.P,U1,22,A8*%
%TO.N,unconnected-(U1-A8-Pad22)*%
X135890000Y-49174400D03*
%TO.P,U1,23,A9*%
%TO.N,Net-(U1-A9)*%
X135890000Y-46634400D03*
%TO.P,U1,24,A10*%
%TO.N,/TX6*%
X120650000Y-77114400D03*
%TO.P,U1,25,A11*%
%TO.N,/RX6*%
X120650000Y-79654400D03*
%TO.P,U1,26,A12*%
%TO.N,/SOIL_ENABLE*%
X120650000Y-82194400D03*
%TO.P,U1,27,A13*%
%TO.N,/RESERVE_0*%
X120650000Y-84734400D03*
%TO.P,U1,28,RX7*%
%TO.N,/RESERVE_1*%
X120650000Y-87274400D03*
%TO.P,U1,29,TX7*%
%TO.N,/RESERVE_2*%
X120650000Y-89814400D03*
%TO.P,U1,30,CRX3*%
%TO.N,/RESERVE_3*%
X120650000Y-92354400D03*
%TO.P,U1,31,CTX3*%
%TO.N,unconnected-(U1-CTX3-Pad31)*%
X120650000Y-94894400D03*
%TO.P,U1,32,OUT1B*%
%TO.N,unconnected-(U1-OUT1B-Pad32)*%
X120650000Y-97434400D03*
%TO.P,U1,33,MCLK2*%
%TO.N,Net-(BZ1-+)*%
X135890000Y-97434400D03*
%TO.P,U1,34,RX8*%
%TO.N,/RX8*%
X135890000Y-94894400D03*
%TO.P,U1,35,TX8*%
%TO.N,/TX8*%
X135890000Y-92354400D03*
%TO.P,U1,36,CS2*%
%TO.N,unconnected-(U1-CS2-Pad36)*%
X135890000Y-89814400D03*
%TO.P,U1,37,CS3*%
%TO.N,unconnected-(U1-CS3-Pad37)*%
X135890000Y-87274400D03*
%TO.P,U1,38,A14*%
%TO.N,unconnected-(U1-A14-Pad38)*%
X135890000Y-84734400D03*
%TO.P,U1,39,A15*%
%TO.N,unconnected-(U1-A15-Pad39)*%
X135890000Y-82194400D03*
%TO.P,U1,40,A16*%
%TO.N,unconnected-(U1-A16-Pad40)*%
X135890000Y-79654400D03*
%TO.P,U1,41,A17*%
%TO.N,unconnected-(U1-A17-Pad41)*%
X135890000Y-77114400D03*
%TO.P,U1,GND1,GND*%
%TO.N,GND*%
X120650000Y-39014400D03*
%TO.P,U1,GND2,GND*%
X135890000Y-74574400D03*
%TO.P,U1,GND3,GND*%
X135890000Y-41554400D03*
%TO.P,U1,VIN,VIN*%
%TO.N,+5V*%
X135890000Y-39014400D03*
%TD*%
D15*
%TO.P,R3,1*%
%TO.N,GND*%
X138684000Y-43586400D03*
%TO.P,R3,2*%
%TO.N,Net-(Q1-G)*%
X146304000Y-43586400D03*
%TD*%
D10*
%TO.P,J8,1,Pin_1*%
%TO.N,/RX8*%
X147616000Y-88440000D03*
D11*
%TO.P,J8,2,Pin_2*%
%TO.N,/TX8*%
X147616000Y-90440000D03*
%TO.P,J8,3,Pin_3*%
%TO.N,+3V3*%
X147616000Y-92440000D03*
%TO.P,J8,4,Pin_4*%
%TO.N,GND*%
X147616000Y-94440000D03*
%TD*%
D10*
%TO.P,J4,1,Pin_1*%
%TO.N,/DRILL*%
X112564000Y-63040000D03*
D11*
%TO.P,J4,2,Pin_2*%
%TO.N,/ROVER_TOP*%
X112564000Y-65040000D03*
%TO.P,J4,3,Pin_3*%
%TO.N,/ROVER_BOT*%
X112564000Y-67040000D03*
%TO.P,J4,4,Pin_4*%
%TO.N,GND*%
X112564000Y-69040000D03*
%TD*%
D16*
%TO.P,BZ1,1,+*%
%TO.N,Net-(BZ1-+)*%
X137708000Y-103886000D03*
D13*
%TO.P,BZ1,2,-*%
%TO.N,GND*%
X145328000Y-103886000D03*
%TD*%
D17*
%TO.P,U4,1,Vin*%
%TO.N,+3V3*%
X128270000Y-127508000D03*
%TO.P,U4,2,3v0*%
%TO.N,unconnected-(U4-3v0-Pad2)*%
X130810000Y-127508000D03*
%TO.P,U4,3,GND*%
%TO.N,GND*%
X133350000Y-127508000D03*
%TO.P,U4,4,SCK*%
%TO.N,Net-(U1-A5)*%
X135890000Y-127508000D03*
%TO.P,U4,5,SDO*%
%TO.N,unconnected-(U4-SDO-Pad5)*%
X138430000Y-127508000D03*
%TO.P,U4,6,SDI*%
%TO.N,Net-(U1-A4)*%
X140970000Y-127508000D03*
%TO.P,U4,7,CS*%
%TO.N,unconnected-(U4-CS-Pad7)*%
X143510000Y-127508000D03*
%TD*%
D10*
%TO.P,J2,1,Pin_1*%
%TO.N,/SERVO_0*%
X112522000Y-37624000D03*
D11*
%TO.P,J2,2,Pin_2*%
%TO.N,/SERVO_1*%
X112522000Y-39624000D03*
%TO.P,J2,3,Pin_3*%
%TO.N,/SERVO_2*%
X112522000Y-41624000D03*
%TO.P,J2,4,Pin_4*%
%TO.N,/SERVO_3*%
X112522000Y-43624000D03*
%TD*%
D18*
%TO.P,Q1,1,G*%
%TO.N,Net-(Q1-G)*%
X146304000Y-51714400D03*
D19*
%TO.P,Q1,2,D*%
%TO.N,Net-(J1-Pin_2)*%
X143764000Y-51714400D03*
%TO.P,Q1,3,S*%
%TO.N,GND*%
X141224000Y-51714400D03*
%TD*%
D15*
%TO.P,R2,1*%
%TO.N,Net-(U1-A9)*%
X138684000Y-46634400D03*
%TO.P,R2,2*%
%TO.N,Net-(Q1-G)*%
X146304000Y-46634400D03*
%TD*%
D17*
%TO.P,U3,1,VCC*%
%TO.N,+3V3*%
X126890000Y-149748000D03*
%TO.P,U3,2,GND*%
%TO.N,GND*%
X129430000Y-149748000D03*
%TO.P,U3,3,SCL*%
%TO.N,Net-(U1-A5)*%
X131970000Y-149748000D03*
%TO.P,U3,4,SDA*%
%TO.N,Net-(U1-A4)*%
X134510000Y-149748000D03*
%TO.P,U3,5,XDA*%
%TO.N,unconnected-(U3-XDA-Pad5)*%
X137050000Y-149748000D03*
%TO.P,U3,6,XCL*%
%TO.N,unconnected-(U3-XCL-Pad6)*%
X139590000Y-149748000D03*
%TO.P,U3,7,ADO*%
%TO.N,unconnected-(U3-ADO-Pad7)*%
X142130000Y-149748000D03*
%TO.P,U3,8,INT*%
%TO.N,unconnected-(U3-INT-Pad8)*%
X144670000Y-149748000D03*
%TD*%
D20*
%TO.P,C3,1*%
%TO.N,+3V3*%
X124258000Y-47246000D03*
%TO.P,C3,2*%
%TO.N,GND*%
X125758000Y-47246000D03*
%TD*%
%TO.P,C2,1*%
%TO.N,+3V3*%
X124258000Y-53088000D03*
%TO.P,C2,2*%
%TO.N,GND*%
X125758000Y-53088000D03*
%TD*%
%TO.P,C5,1*%
%TO.N,+3V3*%
X127520000Y-142748000D03*
%TO.P,C5,2*%
%TO.N,GND*%
X129020000Y-142748000D03*
%TD*%
%TO.P,C4,1*%
%TO.N,+3V3*%
X124008000Y-40896000D03*
%TO.P,C4,2*%
%TO.N,GND*%
X126008000Y-40896000D03*
%TD*%
%TO.P,C1,1*%
%TO.N,+3V3*%
X124258000Y-58930000D03*
%TO.P,C1,2*%
%TO.N,GND*%
X125758000Y-58930000D03*
%TD*%
%TO.P,C8,1*%
%TO.N,+3V3*%
X128282000Y-121158000D03*
%TO.P,C8,2*%
%TO.N,GND*%
X129782000Y-121158000D03*
%TD*%
D21*
%TO.N,GND*%
X143620490Y-86614000D03*
X143620490Y-89408000D03*
D22*
%TO.N,+3V3*%
X134333490Y-107908000D03*
X127633490Y-107908000D03*
D21*
%TO.N,/TX4*%
X139446000Y-69596000D03*
%TD*%
D23*
%TO.N,Net-(BZ1-+)*%
X137708000Y-99252400D02*
X137708000Y-103886000D01*
X135890000Y-97434400D02*
X137708000Y-99252400D01*
%TO.N,GND*%
X143620490Y-86614000D02*
X143620490Y-89408000D01*
D24*
%TO.N,+5V*%
X140188900Y-34715500D02*
X135890000Y-39014400D01*
X141605000Y-34715500D02*
X140188900Y-34715500D01*
%TO.N,Net-(J1-Pin_2)*%
X143764000Y-40894000D02*
X145415000Y-39243000D01*
X145415000Y-39243000D02*
X145415000Y-34715500D01*
X143764000Y-51714400D02*
X143764000Y-40894000D01*
D25*
%TO.N,+3V3*%
X147616000Y-92440000D02*
X146291000Y-92440000D01*
X124258000Y-127808000D02*
X124258000Y-142508000D01*
X135890000Y-44094400D02*
X132254945Y-47729455D01*
X124258000Y-53088000D02*
X124258000Y-58930000D01*
X124258000Y-121308000D02*
X124258000Y-127808000D01*
X124258000Y-47246000D02*
X124258000Y-50208000D01*
X124408000Y-121158000D02*
X124258000Y-121308000D01*
X127490580Y-50208000D02*
X128633490Y-51350910D01*
X124258000Y-70966400D02*
X124258000Y-107908000D01*
X127633490Y-107908000D02*
X124258000Y-107908000D01*
X140533490Y-105208000D02*
X137833490Y-107908000D01*
X124008000Y-46996000D02*
X124258000Y-47246000D01*
X128633490Y-51350910D02*
X128633490Y-60932510D01*
X137833490Y-107908000D02*
X134333490Y-107908000D01*
X124258000Y-147116000D02*
X126890000Y-149748000D01*
X124258000Y-50208000D02*
X124258000Y-53088000D01*
X140533490Y-98197510D02*
X140533490Y-105208000D01*
X128533490Y-44008000D02*
X132254945Y-47729455D01*
X146291000Y-92440000D02*
X140533490Y-98197510D01*
X120650000Y-74574400D02*
X124258000Y-70966400D01*
X124008000Y-44008000D02*
X128533490Y-44008000D01*
X124498000Y-142748000D02*
X124258000Y-142508000D01*
X124008000Y-44008000D02*
X124008000Y-46996000D01*
X124558000Y-127508000D02*
X124258000Y-127808000D01*
X124258000Y-65308000D02*
X124258000Y-70966400D01*
X124258000Y-50208000D02*
X127490580Y-50208000D01*
X132254945Y-47729455D02*
X128633490Y-51350910D01*
X128270000Y-127508000D02*
X124558000Y-127508000D01*
X124258000Y-142508000D02*
X124258000Y-147116000D01*
D23*
X128282000Y-127496000D02*
X128270000Y-127508000D01*
D25*
X127520000Y-142748000D02*
X124498000Y-142748000D01*
X124008000Y-40896000D02*
X124008000Y-44008000D01*
X128633490Y-60932510D02*
X124258000Y-65308000D01*
X124258000Y-58930000D02*
X124258000Y-65308000D01*
D23*
X120650000Y-74574400D02*
X120608090Y-74574400D01*
D25*
X124258000Y-107908000D02*
X124258000Y-121308000D01*
X128282000Y-121158000D02*
X124408000Y-121158000D01*
D23*
%TO.N,/SERVO_0*%
X114964000Y-37624000D02*
X112522000Y-37624000D01*
X118894400Y-41554400D02*
X114964000Y-37624000D01*
X120650000Y-41554400D02*
X118894400Y-41554400D01*
%TO.N,/SERVO_3*%
X119114400Y-49174400D02*
X113564000Y-43624000D01*
X120650000Y-49174400D02*
X119114400Y-49174400D01*
X113564000Y-43624000D02*
X112522000Y-43624000D01*
%TO.N,/SERVO_2*%
X118974400Y-46634400D02*
X113964000Y-41624000D01*
X120650000Y-46634400D02*
X118974400Y-46634400D01*
X113964000Y-41624000D02*
X112522000Y-41624000D01*
%TO.N,/SERVO_1*%
X118834400Y-44094400D02*
X114364000Y-39624000D01*
X114364000Y-39624000D02*
X112522000Y-39624000D01*
X120650000Y-44094400D02*
X118834400Y-44094400D01*
%TO.N,/Chassis_Encoder_B*%
X116080000Y-56340000D02*
X112564000Y-56340000D01*
X120650000Y-59334400D02*
X119074400Y-59334400D01*
X119074400Y-59334400D02*
X116080000Y-56340000D01*
%TO.N,/Chassis_Encoder_A*%
X120650000Y-56794400D02*
X119134400Y-56794400D01*
X116680000Y-54340000D02*
X112564000Y-54340000D01*
X119134400Y-56794400D02*
X116680000Y-54340000D01*
%TO.N,/Chassis_Out_1*%
X117080000Y-52340000D02*
X112564000Y-52340000D01*
X118994400Y-54254400D02*
X117080000Y-52340000D01*
X120650000Y-54254400D02*
X118994400Y-54254400D01*
%TO.N,/Chassis_Out_0*%
X119054400Y-51714400D02*
X117680000Y-50340000D01*
X117680000Y-50340000D02*
X112564000Y-50340000D01*
X120650000Y-51714400D02*
X119054400Y-51714400D01*
%TO.N,/ROVER_BOT*%
X120650000Y-66954400D02*
X112649600Y-66954400D01*
X112649600Y-66954400D02*
X112564000Y-67040000D01*
%TO.N,/DRILL*%
X119025600Y-61874400D02*
X117860000Y-63040000D01*
X120650000Y-61874400D02*
X119025600Y-61874400D01*
X117860000Y-63040000D02*
X112564000Y-63040000D01*
%TO.N,/ROVER_TOP*%
X119085600Y-64414400D02*
X118460000Y-65040000D01*
X118460000Y-65040000D02*
X112564000Y-65040000D01*
X120650000Y-64414400D02*
X119085600Y-64414400D01*
%TO.N,/RX6*%
X120650000Y-79654400D02*
X112649600Y-79654400D01*
X112649600Y-79654400D02*
X112564000Y-79740000D01*
%TO.N,/TX6*%
X120650000Y-77114400D02*
X118985600Y-77114400D01*
X118360000Y-77740000D02*
X112564000Y-77740000D01*
X118985600Y-77114400D02*
X118360000Y-77740000D01*
%TO.N,/SOIL_ENABLE*%
X113018400Y-82194400D02*
X112564000Y-81740000D01*
X120650000Y-82194400D02*
X113018400Y-82194400D01*
%TO.N,/RESERVE_0*%
X116944400Y-88440000D02*
X112564000Y-88440000D01*
X120650000Y-84734400D02*
X116944400Y-88440000D01*
%TO.N,/RESERVE_2*%
X120650000Y-89814400D02*
X118024400Y-92440000D01*
X118024400Y-92440000D02*
X112564000Y-92440000D01*
%TO.N,/RESERVE_1*%
X117484400Y-90440000D02*
X112564000Y-90440000D01*
X120650000Y-87274400D02*
X117484400Y-90440000D01*
%TO.N,/RESERVE_3*%
X118564400Y-94440000D02*
X112564000Y-94440000D01*
X120650000Y-92354400D02*
X118564400Y-94440000D01*
%TO.N,/RX3*%
X135890000Y-68014000D02*
X135890000Y-66954400D01*
X147616000Y-79740000D02*
X135890000Y-68014000D01*
%TO.N,/RX4*%
X136290400Y-64414400D02*
X135890000Y-64414400D01*
X147616000Y-75740000D02*
X136290400Y-64414400D01*
%TO.N,/TX3*%
X135890000Y-70014000D02*
X135890000Y-69494400D01*
X147616000Y-81740000D02*
X135890000Y-70014000D01*
%TO.N,/TX4*%
X147616000Y-77740000D02*
X147590000Y-77740000D01*
X147590000Y-77740000D02*
X139446000Y-69596000D01*
%TO.N,/TX8*%
X137804400Y-90440000D02*
X135890000Y-92354400D01*
X147616000Y-90440000D02*
X137804400Y-90440000D01*
%TO.N,Net-(Q1-G)*%
X146304000Y-51714400D02*
X146304000Y-46634400D01*
X146304000Y-43586400D02*
X146304000Y-46634400D01*
%TO.N,Net-(U1-A9)*%
X138684000Y-46634400D02*
X135890000Y-46634400D01*
%TO.N,Net-(U1-A4)*%
X140970000Y-117125242D02*
X130818128Y-106973370D01*
X130818128Y-106973370D02*
X130818128Y-64406272D01*
X140970000Y-143288000D02*
X134510000Y-149748000D01*
X130818128Y-64406272D02*
X135890000Y-59334400D01*
X140970000Y-127508000D02*
X140970000Y-117125242D01*
X140970000Y-127508000D02*
X140970000Y-143288000D01*
%TO.N,Net-(U1-A5)*%
X135890000Y-127508000D02*
X135890000Y-114145060D01*
X135890000Y-127508000D02*
X135890000Y-145828000D01*
X130218180Y-62466220D02*
X135890000Y-56794400D01*
X130218180Y-108473240D02*
X130218180Y-62466220D01*
X135890000Y-145828000D02*
X131970000Y-149748000D01*
X135890000Y-114145060D02*
X130218180Y-108473240D01*
%TD*%
M02*
